<svg width="64" height="72" viewBox="0 0 64 72" fill="none" xmlns="http://www.w3.org/2000/svg">
<rect width="64" height="64" rx="5" fill="#011826"/>
<path d="M10.46 12H20.42C23.82 12 26.3 12.8 27.86 14.4C29.42 15.96 30.2 18.38 30.2 21.66V23.34C30.2 25.5 29.84 27.26 29.12 28.62C28.44 29.98 27.38 30.96 25.94 31.56V31.68C29.22 32.8 30.86 35.72 30.86 40.44V44.04C30.86 47.28 30 49.76 28.28 51.48C26.6 53.16 24.12 54 20.84 54H10.46V12ZM19.64 29.1C20.96 29.1 21.94 28.76 22.58 28.08C23.26 27.4 23.6 26.26 23.6 24.66V22.32C23.6 20.8 23.32 19.7 22.76 19.02C22.24 18.34 21.4 18 20.24 18H17.06V29.1H19.64ZM20.84 48C22 48 22.86 47.7 23.42 47.1C23.98 46.46 24.26 45.38 24.26 43.86V40.2C24.26 38.28 23.92 36.96 23.24 36.24C22.6 35.48 21.52 35.1 20 35.1H17.06V48H20.84ZM44.0778 54.6C40.8778 54.6 38.4378 53.7 36.7578 51.9C35.0778 50.06 34.2378 47.44 34.2378 44.04V21.96C34.2378 18.56 35.0778 15.96 36.7578 14.16C38.4378 12.32 40.8778 11.4 44.0778 11.4C47.2778 11.4 49.7178 12.32 51.3978 14.16C53.0778 15.96 53.9178 18.56 53.9178 21.96V25.56H47.6778V21.54C47.6778 18.78 46.5378 17.4 44.2578 17.4C41.9778 17.4 40.8378 18.78 40.8378 21.54V44.52C40.8378 47.24 41.9778 48.6 44.2578 48.6C46.5378 48.6 47.6778 47.24 47.6778 44.52V36.3H44.3778V30.3H53.9178V44.04C53.9178 47.44 53.0778 50.06 51.3978 51.9C49.7178 53.7 47.2778 54.6 44.0778 54.6Z" fill="#18D9D9"/>
</svg>
