<svg width="31" height="31" viewBox="0 0 31 31" fill="none" xmlns="http://www.w3.org/2000/svg">
<path d="M15.5005 0C16.0409 0 16.5343 0.31482 16.7693 0.817321L20.7987 9.37195L29.7974 10.7402C30.326 10.8189 30.7665 11.2003 30.931 11.727C31.0955 12.2538 30.9604 12.8229 30.5845 13.2103L24.0587 19.8821L25.5976 29.3025C25.6857 29.8474 25.4684 30.3983 25.0278 30.7252C24.5873 31.0521 24.0117 31.0885 23.5418 30.8281L15.4946 26.3964L7.45926 30.8221C6.98348 31.0824 6.40785 31.0461 5.97319 30.7192C5.53852 30.3922 5.31532 29.8413 5.40343 29.2964L6.94237 19.876L0.416561 13.2103C0.0347634 12.8229 -0.0944605 12.2477 0.0700062 11.727C0.234473 11.2064 0.675009 10.825 1.20365 10.7402L10.2023 9.37195L14.2318 0.817321C14.4726 0.31482 14.9601 0 15.5005 0ZM15.5005 4.78284L12.4168 11.3335C12.2112 11.7634 11.8176 12.0661 11.3536 12.1387L4.40488 13.1922L9.45048 18.3443C9.77354 18.6773 9.92626 19.1495 9.8499 19.6157L8.65752 26.8626L14.8368 23.4601C15.2538 23.2301 15.7531 23.2301 16.1642 23.4601L22.3435 26.8626L21.157 19.6218C21.0806 19.1556 21.2275 18.6834 21.5564 18.3504L26.602 13.1982L19.6533 12.1387C19.1951 12.0661 18.7957 11.7694 18.5901 11.3335L15.5005 4.78284Z" fill="white"/>
</svg>
