<svg width="192" height="192" viewBox="0 0 192 192" fill="none" xmlns="http://www.w3.org/2000/svg">
<g clip-path="url(#clip0_22_470)">
<path d="M29.4749 1.87463C25.9124 -0.900375 20.8499 -0.562875 17.6249 2.62463L2.62488 17.6246C-0.562615 20.8121 -0.900115 25.8746 1.83738 29.4746L31.8374 68.4746C33.5249 70.6871 36.1874 71.9996 38.9624 71.9996H59.2499L100.125 112.875C94.6124 123.75 96.3749 137.4 105.487 146.475L147.487 188.475C152.175 193.162 159.787 193.162 164.475 188.475L188.475 164.475C193.162 159.787 193.162 152.175 188.475 147.487L146.475 105.487C137.4 96.4121 123.75 94.6121 112.875 100.125L71.9999 59.2496V38.9996C71.9999 36.1871 70.6874 33.5621 68.4749 31.8746L29.4749 1.87463ZM7.46238 148.537C2.69988 153.3 -0.000115467 159.787 -0.000115467 166.537C-0.000115467 180.6 11.3999 192 25.4624 192C32.2124 192 38.6999 189.3 43.4624 184.537L87.6374 140.362C84.7124 132.525 84.2624 124.012 86.2874 115.95L63.1499 92.8121L7.46238 148.537ZM192 53.9996C192 50.0621 191.587 46.2371 190.8 42.5621C189.9 38.3621 184.762 37.2746 181.725 40.3121L157.762 64.2746C156.637 65.3996 155.1 66.0371 153.525 66.0371H132C128.7 66.0371 126 63.3371 126 60.0371V38.4746C126 36.8996 126.637 35.3621 127.762 34.2371L151.725 10.2746C154.762 7.23713 153.675 2.09963 149.475 1.19963C145.762 0.412125 141.937 -0.000374885 138 -0.000374885C108.187 -0.000374885 83.9999 24.1871 83.9999 53.9996V54.2996L115.987 86.2871C129.487 82.8746 144.412 86.4746 154.987 97.0496L160.875 102.937C179.25 94.3121 192 75.6371 192 53.9996ZM20.9999 162C20.9999 159.613 21.9481 157.324 23.6359 155.636C25.3238 153.948 27.6129 153 29.9999 153C32.3868 153 34.676 153.948 36.3638 155.636C38.0517 157.324 38.9999 159.613 38.9999 162C38.9999 164.387 38.0517 166.676 36.3638 168.364C34.676 170.051 32.3868 171 29.9999 171C27.6129 171 25.3238 170.051 23.6359 168.364C21.9481 166.676 20.9999 164.387 20.9999 162Z" fill="#011826"/>
</g>
<defs>
<clipPath id="clip0_22_470">
<rect width="192" height="192" fill="white"/>
</clipPath>
</defs>
</svg>
