<svg width="986" height="304" viewBox="0 0 986 304" fill="none" xmlns="http://www.w3.org/2000/svg">
<path d="M348.096 22.6C349.653 22.6 351.019 22.8987 352.192 23.496C353.387 24.072 354.379 24.8827 355.168 25.928C355.957 26.9733 356.544 28.1787 356.928 29.544C357.333 30.888 357.536 32.3067 357.536 33.8C357.536 35.848 357.184 37.7253 356.48 39.432C355.776 41.1173 354.731 42.472 353.344 43.496C351.957 44.4987 350.208 45 348.096 45H340.096C339.733 45 339.424 44.872 339.168 44.616C338.933 44.36 338.816 44.0507 338.816 43.688V23.88C338.816 23.5173 338.933 23.2187 339.168 22.984C339.424 22.728 339.733 22.6 340.096 22.6H348.096ZM347.776 42.504C349.419 42.504 350.752 42.1093 351.776 41.32C352.821 40.5307 353.579 39.4747 354.048 38.152C354.539 36.8293 354.784 35.3787 354.784 33.8C354.784 32.648 354.645 31.5493 354.368 30.504C354.112 29.4373 353.696 28.4987 353.12 27.688C352.565 26.8773 351.84 26.2373 350.944 25.768C350.069 25.2987 349.013 25.064 347.776 25.064H341.216L341.472 24.808V42.824L341.28 42.504H347.776ZM369.235 45.32C367.528 45.32 366.035 44.9573 364.755 44.232C363.475 43.5067 362.472 42.5147 361.747 41.256C361.043 39.976 360.691 38.504 360.691 36.84C360.691 34.984 361.053 33.4053 361.779 32.104C362.525 30.7813 363.485 29.7787 364.659 29.096C365.853 28.392 367.112 28.04 368.435 28.04C369.416 28.04 370.365 28.2213 371.283 28.584C372.2 28.9467 373.011 29.48 373.715 30.184C374.419 30.8667 374.984 31.6987 375.411 32.68C375.837 33.64 376.061 34.7173 376.083 35.912C376.083 36.2533 375.955 36.5413 375.699 36.776C375.443 37.0107 375.144 37.128 374.803 37.128H362.163L361.587 34.92H373.907L373.395 35.368V34.664C373.309 33.7893 373.011 33.0427 372.499 32.424C372.008 31.784 371.4 31.2933 370.675 30.952C369.971 30.6107 369.224 30.44 368.435 30.44C367.795 30.44 367.155 30.5573 366.515 30.792C365.896 31.0053 365.331 31.368 364.819 31.88C364.328 32.3707 363.923 33.0107 363.603 33.8C363.304 34.5893 363.155 35.5387 363.155 36.648C363.155 37.8853 363.4 38.9733 363.891 39.912C364.403 40.8507 365.107 41.5973 366.003 42.152C366.899 42.6853 367.944 42.952 369.139 42.952C369.885 42.952 370.536 42.856 371.091 42.664C371.645 42.472 372.125 42.2373 372.531 41.96C372.936 41.6613 373.277 41.3627 373.555 41.064C373.832 40.872 374.099 40.776 374.355 40.776C374.675 40.776 374.931 40.8827 375.123 41.096C375.336 41.3093 375.443 41.5653 375.443 41.864C375.443 42.2267 375.272 42.5467 374.931 42.824C374.333 43.4853 373.523 44.072 372.499 44.584C371.475 45.0747 370.387 45.32 369.235 45.32ZM379.003 42.376C378.811 42.0987 378.725 41.8107 378.747 41.512C378.768 41.192 378.949 40.9147 379.291 40.68C379.504 40.5307 379.749 40.4667 380.027 40.488C380.325 40.5093 380.592 40.648 380.827 40.904C381.424 41.608 382.107 42.1733 382.875 42.6C383.643 43.0053 384.581 43.208 385.691 43.208C386.203 43.1867 386.715 43.1013 387.227 42.952C387.739 42.8027 388.165 42.5467 388.507 42.184C388.869 41.8 389.051 41.2987 389.051 40.68C389.051 40.0827 388.869 39.6133 388.507 39.272C388.144 38.9093 387.675 38.6213 387.099 38.408C386.523 38.1733 385.893 37.9707 385.211 37.8C384.507 37.608 383.813 37.3947 383.131 37.16C382.448 36.904 381.829 36.5947 381.275 36.232C380.741 35.848 380.304 35.3787 379.963 34.824C379.643 34.248 379.483 33.5547 379.483 32.744C379.483 31.784 379.739 30.952 380.251 30.248C380.784 29.544 381.488 29 382.363 28.616C383.259 28.232 384.229 28.04 385.275 28.04C385.872 28.04 386.491 28.1147 387.131 28.264C387.792 28.392 388.432 28.6267 389.051 28.968C389.669 29.288 390.213 29.736 390.683 30.312C390.875 30.5253 390.981 30.792 391.003 31.112C391.024 31.432 390.885 31.72 390.587 31.976C390.352 32.1467 390.085 32.2213 389.787 32.2C389.509 32.1787 389.275 32.072 389.083 31.88C388.635 31.3467 388.069 30.9413 387.387 30.664C386.725 30.3653 385.989 30.216 385.179 30.216C384.667 30.216 384.165 30.2907 383.675 30.44C383.184 30.5893 382.768 30.8453 382.427 31.208C382.107 31.5493 381.947 32.0293 381.947 32.648C381.968 33.224 382.16 33.6933 382.523 34.056C382.885 34.4187 383.376 34.7173 383.995 34.952C384.613 35.1653 385.296 35.3787 386.043 35.592C386.725 35.7627 387.376 35.9653 387.995 36.2C388.635 36.4133 389.211 36.7013 389.723 37.064C390.235 37.4267 390.64 37.896 390.939 38.472C391.237 39.0267 391.387 39.7307 391.387 40.584C391.387 41.5653 391.109 42.4187 390.555 43.144C390 43.848 389.264 44.392 388.347 44.776C387.451 45.1387 386.48 45.32 385.435 45.32C384.261 45.32 383.099 45.096 381.947 44.648C380.816 44.2 379.835 43.4427 379.003 42.376ZM397.551 43.688C397.551 44.0507 397.423 44.36 397.167 44.616C396.932 44.872 396.633 45 396.271 45C395.887 45 395.577 44.872 395.343 44.616C395.108 44.36 394.991 44.0507 394.991 43.688V29.48C394.991 29.1173 395.108 28.8187 395.343 28.584C395.599 28.328 395.908 28.2 396.271 28.2C396.633 28.2 396.932 28.328 397.167 28.584C397.423 28.8187 397.551 29.1173 397.551 29.48V43.688ZM396.271 26.056C395.737 26.056 395.343 25.9493 395.087 25.736C394.831 25.5227 394.703 25.192 394.703 24.744V24.296C394.703 23.848 394.841 23.5173 395.119 23.304C395.396 23.0907 395.791 22.984 396.303 22.984C396.815 22.984 397.199 23.0907 397.455 23.304C397.711 23.5173 397.839 23.848 397.839 24.296V24.744C397.839 25.192 397.7 25.5227 397.423 25.736C397.167 25.9493 396.783 26.056 396.271 26.056ZM409.093 28.04C410.011 28.04 410.864 28.2 411.653 28.52C412.443 28.8187 413.125 29.2133 413.701 29.704C414.299 30.1947 414.757 30.7067 415.077 31.24C415.419 31.7733 415.589 32.2747 415.589 32.744L414.981 32.36V29.576C414.981 29.2133 415.099 28.9147 415.333 28.68C415.568 28.424 415.877 28.296 416.261 28.296C416.624 28.296 416.923 28.424 417.157 28.68C417.413 28.9147 417.541 29.2133 417.541 29.576V43.592C417.541 45.3413 417.168 46.792 416.421 47.944C415.696 49.096 414.715 49.96 413.477 50.536C412.24 51.112 410.853 51.4 409.317 51.4C408.677 51.4 407.973 51.3147 407.205 51.144C406.437 50.9733 405.755 50.76 405.157 50.504C404.56 50.2693 404.176 50.024 404.005 49.768C403.685 49.5547 403.483 49.3093 403.397 49.032C403.333 48.776 403.387 48.5307 403.557 48.296C403.749 47.9973 403.995 47.848 404.293 47.848C404.613 47.848 405.008 47.944 405.477 48.136C405.669 48.2 405.968 48.3067 406.373 48.456C406.8 48.6053 407.269 48.7333 407.781 48.84C408.315 48.968 408.837 49.032 409.349 49.032C411.163 49.032 412.549 48.552 413.509 47.592C414.491 46.6533 414.981 45.4053 414.981 43.848V40.872L415.333 41.032C415.205 41.6293 414.939 42.184 414.533 42.696C414.149 43.208 413.669 43.6667 413.093 44.072C412.539 44.456 411.92 44.7653 411.237 45C410.555 45.2133 409.861 45.32 409.157 45.32C407.664 45.32 406.32 44.9467 405.125 44.2C403.931 43.4533 402.981 42.4293 402.277 41.128C401.595 39.8267 401.253 38.344 401.253 36.68C401.253 34.9947 401.595 33.5013 402.277 32.2C402.981 30.8987 403.92 29.8853 405.093 29.16C406.288 28.4133 407.621 28.04 409.093 28.04ZM409.413 30.408C408.325 30.408 407.344 30.6853 406.469 31.24C405.616 31.7733 404.944 32.5093 404.453 33.448C403.984 34.3867 403.749 35.464 403.749 36.68C403.749 37.8533 403.984 38.92 404.453 39.88C404.944 40.8187 405.616 41.5653 406.469 42.12C407.344 42.6747 408.325 42.952 409.413 42.952C410.523 42.952 411.504 42.6853 412.357 42.152C413.211 41.5973 413.883 40.8507 414.373 39.912C414.864 38.9733 415.109 37.896 415.109 36.68C415.109 35.4427 414.864 34.3547 414.373 33.416C413.883 32.4773 413.211 31.7413 412.357 31.208C411.504 30.6747 410.523 30.408 409.413 30.408ZM430.498 28.04C431.949 28.04 433.09 28.3387 433.922 28.936C434.754 29.5333 435.341 30.3333 435.682 31.336C436.045 32.3387 436.226 33.4587 436.226 34.696V43.688C436.226 44.0507 436.098 44.36 435.842 44.616C435.608 44.872 435.309 45 434.946 45C434.584 45 434.274 44.872 434.018 44.616C433.784 44.36 433.666 44.0507 433.666 43.688V34.76C433.666 33.9493 433.538 33.224 433.282 32.584C433.048 31.9227 432.642 31.4 432.066 31.016C431.512 30.6107 430.744 30.408 429.762 30.408C428.866 30.408 428.045 30.6107 427.298 31.016C426.552 31.4 425.954 31.9227 425.506 32.584C425.058 33.224 424.834 33.9493 424.834 34.76V43.688C424.834 44.0507 424.706 44.36 424.45 44.616C424.216 44.872 423.917 45 423.554 45C423.192 45 422.882 44.872 422.626 44.616C422.392 44.36 422.274 44.0507 422.274 43.688V29.736C422.274 29.3733 422.392 29.0747 422.626 28.84C422.882 28.584 423.192 28.456 423.554 28.456C423.938 28.456 424.248 28.584 424.482 28.84C424.717 29.0747 424.834 29.3733 424.834 29.736V32.008L424.194 32.712C424.301 32.1573 424.546 31.6027 424.93 31.048C425.314 30.472 425.794 29.96 426.37 29.512C426.946 29.064 427.586 28.712 428.29 28.456C428.994 28.1787 429.73 28.04 430.498 28.04Z" fill="#011826"/>
<path d="M486.096 22.6C487.653 22.6 489.019 22.8987 490.192 23.496C491.387 24.072 492.379 24.8827 493.168 25.928C493.957 26.9733 494.544 28.1787 494.928 29.544C495.333 30.888 495.536 32.3067 495.536 33.8C495.536 35.848 495.184 37.7253 494.48 39.432C493.776 41.1173 492.731 42.472 491.344 43.496C489.957 44.4987 488.208 45 486.096 45H478.096C477.733 45 477.424 44.872 477.168 44.616C476.933 44.36 476.816 44.0507 476.816 43.688V23.88C476.816 23.5173 476.933 23.2187 477.168 22.984C477.424 22.728 477.733 22.6 478.096 22.6H486.096ZM485.776 42.504C487.419 42.504 488.752 42.1093 489.776 41.32C490.821 40.5307 491.579 39.4747 492.048 38.152C492.539 36.8293 492.784 35.3787 492.784 33.8C492.784 32.648 492.645 31.5493 492.368 30.504C492.112 29.4373 491.696 28.4987 491.12 27.688C490.565 26.8773 489.84 26.2373 488.944 25.768C488.069 25.2987 487.013 25.064 485.776 25.064H479.216L479.472 24.808V42.824L479.28 42.504H485.776ZM507.235 45.32C505.528 45.32 504.035 44.9573 502.755 44.232C501.475 43.5067 500.472 42.5147 499.747 41.256C499.043 39.976 498.691 38.504 498.691 36.84C498.691 34.984 499.053 33.4053 499.779 32.104C500.525 30.7813 501.485 29.7787 502.659 29.096C503.853 28.392 505.112 28.04 506.435 28.04C507.416 28.04 508.365 28.2213 509.283 28.584C510.2 28.9467 511.011 29.48 511.715 30.184C512.419 30.8667 512.984 31.6987 513.411 32.68C513.837 33.64 514.061 34.7173 514.083 35.912C514.083 36.2533 513.955 36.5413 513.699 36.776C513.443 37.0107 513.144 37.128 512.803 37.128H500.163L499.587 34.92H511.907L511.395 35.368V34.664C511.309 33.7893 511.011 33.0427 510.499 32.424C510.008 31.784 509.4 31.2933 508.675 30.952C507.971 30.6107 507.224 30.44 506.435 30.44C505.795 30.44 505.155 30.5573 504.515 30.792C503.896 31.0053 503.331 31.368 502.819 31.88C502.328 32.3707 501.923 33.0107 501.603 33.8C501.304 34.5893 501.155 35.5387 501.155 36.648C501.155 37.8853 501.4 38.9733 501.891 39.912C502.403 40.8507 503.107 41.5973 504.003 42.152C504.899 42.6853 505.944 42.952 507.139 42.952C507.885 42.952 508.536 42.856 509.091 42.664C509.645 42.472 510.125 42.2373 510.531 41.96C510.936 41.6613 511.277 41.3627 511.555 41.064C511.832 40.872 512.099 40.776 512.355 40.776C512.675 40.776 512.931 40.8827 513.123 41.096C513.336 41.3093 513.443 41.5653 513.443 41.864C513.443 42.2267 513.272 42.5467 512.931 42.824C512.333 43.4853 511.523 44.072 510.499 44.584C509.475 45.0747 508.387 45.32 507.235 45.32ZM517.774 28.168C518.03 28.168 518.276 28.2427 518.51 28.392C518.745 28.52 518.916 28.712 519.022 28.968L524.334 41.448L523.822 41.704L529.23 29C529.465 28.424 529.86 28.1467 530.414 28.168C530.734 28.168 531.012 28.2747 531.246 28.488C531.481 28.7013 531.598 28.968 531.598 29.288C531.598 29.416 531.577 29.544 531.534 29.672C531.513 29.7787 531.481 29.8747 531.438 29.96L525.262 44.168C525.028 44.7013 524.654 44.9787 524.142 45C523.865 45.0213 523.598 44.968 523.342 44.84C523.108 44.6907 522.937 44.4667 522.83 44.168L516.654 29.992C516.612 29.9067 516.569 29.8107 516.526 29.704C516.505 29.5973 516.494 29.4693 516.494 29.32C516.494 29.0427 516.601 28.7867 516.814 28.552C517.049 28.296 517.369 28.168 517.774 28.168Z" fill="#011826"/>
<path d="M515.612 119.068V168.946H565.49V119.068H515.612ZM541.644 161.736C540.91 163.229 539.506 164.211 537.88 164.684C535.381 165.258 532.992 164.931 531.213 163.863C530.023 163.133 529.094 162.01 528.464 160.716C529.729 159.943 530.992 159.165 532.257 158.392C532.291 158.406 532.389 158.586 532.523 158.819C533.006 159.63 533.424 160.204 534.245 160.606C535.051 160.88 536.818 161.057 537.502 159.638C537.92 158.918 537.786 156.553 537.786 153.989C537.786 149.958 537.805 145.994 537.805 141.914H542.47C542.47 146.198 542.494 150.493 542.47 154.771C542.479 157.393 542.707 159.777 541.644 161.736ZM560.999 160.418C559.378 165.966 550.335 166.146 546.724 162.48C545.96 161.618 545.482 161.167 545.026 160.171C546.947 159.066 546.947 159.066 548.815 157.986C549.83 159.546 550.769 160.403 552.456 160.754C554.747 161.033 557.051 160.247 556.535 157.815C556.004 155.828 551.846 155.345 549.015 153.22C546.142 151.29 545.469 146.601 547.83 143.922C548.617 142.931 549.959 142.192 551.366 141.836C551.854 141.774 552.348 141.709 552.836 141.647C555.657 141.589 557.421 142.333 558.715 143.781C559.075 144.146 559.368 144.539 559.92 145.393C558.417 146.351 558.422 146.342 556.269 147.736C555.808 146.745 555.046 146.123 554.24 145.854C552.989 145.475 551.409 145.887 551.083 147.21C550.969 147.618 550.993 147.998 551.173 148.67C551.68 149.827 553.382 150.329 554.909 151.031C559.305 152.814 560.788 154.723 561.153 156.999C561.504 158.958 561.067 160.228 561.002 160.418H560.999Z" fill="#011826"/>
<g clip-path="url(#clip0_106_2)">
<path d="M718.632 61.5606C717.832 62.0224 716.991 63.2959 716.893 66.0738C716.846 67.3933 715.739 68.4253 714.42 68.3789C713.1 68.3325 712.068 67.2253 712.115 65.9058C712.234 62.5002 713.311 59.1117 716.241 57.4199C719.18 55.7233 722.664 56.4938 725.681 58.1032C726.846 58.7246 727.286 60.1728 726.665 61.3377C726.043 62.5026 724.595 62.9431 723.43 62.3217C720.965 61.0064 719.434 61.0974 718.632 61.5606ZM731.451 65.7072C732.467 64.8648 733.974 65.0062 734.817 66.0229C736.584 68.1558 738.279 70.5879 739.818 73.2531C743.134 78.9961 745.178 84.88 745.729 89.8154C746.004 92.279 745.92 94.6234 745.345 96.6341C744.765 98.6601 743.636 100.494 741.742 101.587C739.45 102.91 736.804 102.723 734.382 101.841C731.952 100.956 729.451 99.2803 727.066 97.1039C726.091 96.2137 726.022 94.7015 726.912 93.7264C727.802 92.7514 729.314 92.6822 730.29 93.5725C732.39 95.4901 734.365 96.746 736.018 97.3481C737.68 97.9531 738.726 97.8077 739.351 97.4466C739.875 97.1441 740.402 96.5276 740.748 95.3186C741.098 94.0946 741.209 92.4186 740.977 90.3458C740.515 86.2081 738.743 80.9537 735.677 75.6437C734.267 73.2014 732.724 70.9911 731.135 69.0732C730.293 68.0565 730.434 66.5495 731.451 65.7072Z" fill="#011826"/>
<path d="M749.392 80.1551C749.392 79.2315 748.71 77.8658 746.353 76.3923C745.233 75.6924 744.893 74.2174 745.593 73.0979C746.293 71.9784 747.768 71.6383 748.888 72.3382C751.777 74.1447 754.173 76.7716 754.173 80.1551C754.173 83.5483 751.764 86.1803 748.862 87.9882C747.741 88.6863 746.267 88.3439 745.568 87.2232C744.87 86.1025 745.213 84.6282 746.333 83.93C748.705 82.4526 749.392 81.0815 749.392 80.1551ZM739.391 89.1829C739.613 90.4847 738.737 91.7192 737.435 91.9404C734.704 92.4042 731.751 92.656 728.673 92.656C722.042 92.656 715.924 91.4849 711.374 89.4943C709.103 88.5008 707.115 87.2557 705.661 85.7522C704.196 84.237 703.173 82.3421 703.173 80.1551C703.173 77.5093 704.659 75.3115 706.633 73.6552C708.615 71.9928 711.316 70.6644 714.394 69.6876C715.652 69.2882 716.996 69.9845 717.395 71.243C717.795 72.5014 717.098 73.8454 715.84 74.2448C713.129 75.1054 711.054 76.1874 709.706 77.3181C708.351 78.4549 707.954 79.4329 707.954 80.1551C707.954 80.7601 708.225 81.5249 709.098 82.4289C709.984 83.3444 711.38 84.2781 713.291 85.1141C717.105 86.7827 722.542 87.8747 728.673 87.8747C731.493 87.8747 734.179 87.6436 736.634 87.2264C737.936 87.0055 739.17 87.8814 739.391 89.1829Z" fill="#011826"/>
<path d="M718.702 97.4466C719.502 97.9084 721.026 98.0005 723.48 96.6962C724.646 96.0766 726.094 96.5196 726.713 97.6853C727.333 98.8513 726.89 100.299 725.724 100.918C722.715 102.517 719.242 103.279 716.312 101.587C713.373 99.8907 712.298 96.4881 712.184 93.0708C712.139 91.7511 713.173 90.6457 714.493 90.6014C715.812 90.5571 716.918 91.5908 716.962 92.9104C717.056 95.7033 717.9 96.9834 718.702 97.4466ZM715.884 84.2721C714.646 83.8127 714.015 82.4369 714.475 81.199C715.438 78.6024 716.697 75.9182 718.236 73.2531C721.551 67.51 725.625 62.7974 729.623 59.8525C731.619 58.3824 733.692 57.2831 735.721 56.776C737.765 56.265 739.918 56.3264 741.812 57.4199C744.103 58.7428 745.264 61.1283 745.711 63.6663C746.16 66.2135 745.96 69.2174 745.267 72.3708C744.983 73.6604 743.708 74.4761 742.419 74.1928C741.129 73.9095 740.314 72.6345 740.597 71.3449C741.207 68.5666 741.307 66.2287 741.002 64.496C740.695 62.7541 740.046 61.9217 739.421 61.5606C738.897 61.2581 738.1 61.1097 736.88 61.4146C735.644 61.7233 734.138 62.4656 732.458 63.7024C729.106 66.1713 725.442 70.3336 722.376 75.6437C720.966 78.086 719.824 80.5275 718.957 82.8625C718.498 84.1003 717.122 84.7314 715.884 84.2721Z" fill="#011826"/>
<path d="M733.324 79.7109C733.324 82.104 731.384 84.0439 728.991 84.0439C726.598 84.0439 724.658 82.104 724.658 79.7109C724.658 77.3179 726.598 75.3779 728.991 75.3779C731.384 75.3779 733.324 77.3179 733.324 79.7109Z" fill="#011826"/>
</g>
<g clip-path="url(#clip1_106_2)">
<path d="M872.818 34.5063C874.663 34.3136 876.063 32.7078 875.999 30.7809C875.936 28.854 874.345 27.3124 872.436 27.3124H872.309C870.336 27.3767 868.809 29.0467 868.873 31.0378C868.937 32.0013 869.318 32.8363 869.891 33.4145C867.728 37.718 864.419 40.8653 859.456 43.4988C856.084 45.2972 852.584 45.9395 849.085 45.4899C846.222 45.1045 843.995 43.8199 842.595 41.7003C840.559 38.553 840.368 35.1486 842.086 31.7445C843.295 29.3036 845.204 27.5051 846.413 26.6059C846.158 25.7709 845.776 24.3578 845.585 23.3301C836.359 30.0745 837.314 39.1953 840.113 43.4988C842.213 46.7103 846.476 48.7015 851.185 48.7015C852.457 48.7015 853.73 48.573 855.002 48.252C863.146 46.6461 869.318 41.7645 872.818 34.5063ZM884.016 26.5415C879.181 20.825 872.054 17.6777 863.91 17.6777H862.892C862.319 16.5215 861.11 15.7507 859.774 15.7507H859.647C857.675 15.815 856.148 17.485 856.211 19.4762C856.275 21.4032 857.865 22.9447 859.774 22.9447H859.901C861.301 22.8805 862.51 21.9811 863.019 20.7608H864.165C869 20.7608 873.581 22.1738 877.717 24.9359C880.899 27.0555 883.189 29.8174 884.462 33.1574C885.543 35.8553 885.48 38.4886 884.334 40.7367C882.553 44.1411 879.562 46.0038 875.617 46.0038C873.072 46.0038 870.655 45.233 869.382 44.6549C868.682 45.2972 867.41 46.3249 866.519 46.9672C869.255 48.252 872.054 48.9584 874.727 48.9584C880.835 48.9584 885.352 45.5542 887.07 42.1499C888.915 38.4245 888.788 32.0013 884.016 26.5415ZM851.694 35.5982C851.757 37.5253 853.348 39.0667 855.257 39.0667H855.384C857.356 39.0026 858.883 37.3326 858.82 35.3413C858.756 33.4145 857.166 31.8728 855.257 31.8728H855.129C855.002 31.8728 854.811 31.8728 854.684 31.9372C852.075 27.5692 850.994 22.8161 851.375 17.6777C851.63 13.8238 852.903 10.4838 855.129 7.72181C856.975 5.34525 860.538 4.18908 862.956 4.12485C869.7 3.99639 872.563 12.475 872.754 15.8792C873.581 16.0719 874.981 16.5215 875.936 16.8427C875.172 6.43719 868.809 1.04175 862.701 1.04175C856.975 1.04175 851.694 5.21679 849.594 11.383C846.667 19.6046 848.576 27.5051 852.139 33.7355C851.821 34.1851 851.63 34.8917 851.694 35.5982Z" fill="black"/>
</g>
<path d="M370.5 117H358.25C351.485 117 346 122.223 346 128.667C346 135.11 351.485 140.333 358.25 140.333M370.5 117V140.333M370.5 117H382.75C389.516 117 395 122.223 395 128.667C395 135.11 389.516 140.333 382.75 140.333M358.25 140.333H370.5M358.25 140.333C351.485 140.333 346 145.556 346 152C346 158.443 351.485 163.667 358.25 163.667M370.5 140.333H382.75M370.5 140.333V163.667M382.75 140.333C389.516 140.333 395 145.556 395 152C395 158.443 389.516 163.667 382.75 163.667C375.984 163.667 370.5 158.443 370.5 152C370.5 145.556 375.984 140.333 382.75 140.333ZM370.5 163.667H358.25M370.5 163.667V175.333C370.5 181.777 365.016 187 358.25 187C351.485 187 346 181.777 346 175.333C346 168.89 351.485 163.667 358.25 163.667" stroke="black" stroke-width="4" stroke-linecap="round" stroke-linejoin="round"/>
<g clip-path="url(#clip2_106_2)">
<path d="M210.208 59.6437V101.06H168.792V59.6437H210.208ZM210.208 53.7271H168.792C167.222 53.7271 165.718 54.3504 164.608 55.46C163.498 56.5696 162.875 58.0745 162.875 59.6437V101.06C162.875 102.63 163.498 104.135 164.608 105.244C165.718 106.354 167.222 106.977 168.792 106.977H210.208C211.778 106.977 213.282 106.354 214.392 105.244C215.502 104.135 216.125 102.63 216.125 101.06V59.6437C216.125 58.0745 215.502 56.5696 214.392 55.46C213.282 54.3504 211.778 53.7271 210.208 53.7271Z" fill="#011826"/>
<path d="M190.387 92.718L188.701 87.1859H180.211L178.525 92.718H173.229L181.424 69.3767H187.34L195.565 92.718H190.387ZM187.429 83.0442C185.861 78.0446 185.003 75.2046 184.796 74.5538C184.589 73.903 184.471 73.3705 184.382 72.9859C184.027 74.3467 183.021 77.7192 181.424 83.0442H187.429Z" fill="#011826"/>
<path d="M198.02 70.353C198.02 68.7851 198.907 67.9863 200.653 67.9863C202.398 67.9863 203.286 68.7851 203.286 70.353C203.308 70.6735 203.262 70.9952 203.15 71.2963C203.037 71.5974 202.862 71.8709 202.635 72.0984C202.365 72.3347 202.051 72.5142 201.71 72.626C201.37 72.7379 201.01 72.7798 200.653 72.7492C198.907 72.7492 198.02 71.9505 198.02 70.353ZM203.079 92.718H198.375V74.968H203.227L203.079 92.718Z" fill="#011826"/>
</g>
<g clip-path="url(#clip3_106_2)">
<path d="M61.2083 104.644V146.06H19.7917V104.644H61.2083ZM61.2083 98.7271H19.7917C18.2225 98.7271 16.7175 99.3504 15.608 100.46C14.4984 101.57 13.875 103.075 13.875 104.644V146.06C13.875 147.63 14.4984 149.135 15.608 150.244C16.7175 151.354 18.2225 151.977 19.7917 151.977H61.2083C62.7775 151.977 64.2825 151.354 65.392 150.244C66.5016 149.135 67.125 147.63 67.125 146.06V104.644C67.125 103.075 66.5016 101.57 65.392 100.46C64.2825 99.3504 62.7775 98.7271 61.2083 98.7271Z" fill="#011826"/>
<path d="M28.1934 137.541V114.318H33.1042V137.541H28.1934Z" fill="#011826"/>
<path d="M42.8962 137.866C41.9404 137.903 40.9904 137.7 40.1328 137.277C39.2751 136.853 38.537 136.222 37.9854 135.44C36.6955 133.436 36.0741 131.074 36.2104 128.695C36.0659 126.292 36.6986 123.906 38.015 121.891C38.5888 121.104 39.3481 120.471 40.2254 120.047C41.1027 119.624 42.071 119.424 43.0442 119.465C44.0481 119.429 45.0447 119.649 45.9401 120.104C46.8355 120.56 47.6002 121.236 48.1621 122.068H48.31C48.0889 120.898 47.9701 119.71 47.955 118.518V112.838H52.8067V137.54H49.0792L48.1621 135.263H47.955C47.4243 136.112 46.6741 136.802 45.7837 137.26C44.8933 137.718 43.8957 137.928 42.8962 137.866ZM44.6121 134.02C45.1198 134.063 45.6305 133.987 46.1033 133.797C46.576 133.607 46.9975 133.308 47.3337 132.925C48.0094 131.825 48.3392 130.547 48.2804 129.257V128.725C48.3953 127.306 48.0864 125.885 47.3929 124.642C47.0473 124.199 46.5938 123.852 46.0758 123.635C45.5579 123.417 44.9928 123.336 44.4346 123.4C43.9346 123.395 43.4417 123.518 43.002 123.756C42.5622 123.994 42.19 124.34 41.92 124.76C41.2545 125.982 40.9469 127.366 41.0325 128.754C40.9348 130.124 41.2435 131.493 41.92 132.689C42.209 133.131 42.6112 133.487 43.0845 133.721C43.5579 133.956 44.0854 134.059 44.6121 134.02Z" fill="#011826"/>
</g>
<g clip-path="url(#clip4_106_2)">
<path d="M175.208 208.644V250.06H133.792V208.644H175.208ZM175.208 202.727H133.792C132.222 202.727 130.718 203.35 129.608 204.46C128.498 205.57 127.875 207.075 127.875 208.644V250.06C127.875 251.63 128.498 253.135 129.608 254.244C130.718 255.354 132.222 255.977 133.792 255.977H175.208C176.778 255.977 178.282 255.354 179.392 254.244C180.502 253.135 181.125 251.63 181.125 250.06V208.644C181.125 207.075 180.502 205.57 179.392 204.46C178.282 203.35 176.778 202.727 175.208 202.727Z" fill="#011826"/>
<path d="M154.825 224.826C154.889 225.899 154.709 226.973 154.3 227.966C153.89 228.96 153.26 229.849 152.459 230.565C150.551 232.004 148.187 232.708 145.803 232.547H143.702V240.801H138.762V217.519H146.187C148.476 217.362 150.747 218.011 152.607 219.353C153.378 220.028 153.981 220.875 154.366 221.826C154.751 222.776 154.909 223.804 154.825 224.826ZM143.702 228.524H145.3C146.465 228.582 147.617 228.26 148.583 227.607C148.974 227.301 149.281 226.903 149.478 226.448C149.674 225.994 149.753 225.497 149.708 225.003C149.751 224.531 149.688 224.055 149.524 223.61C149.361 223.164 149.1 222.761 148.761 222.429C147.904 221.812 146.856 221.519 145.803 221.601H143.702V228.524Z" fill="#011826"/>
<path d="M170.238 235.535C170.28 236.331 170.13 237.126 169.801 237.852C169.471 238.578 168.972 239.214 168.345 239.706C166.649 240.768 164.661 241.265 162.665 241.126C161.555 241.141 160.445 241.052 159.352 240.86C158.467 240.702 157.604 240.444 156.778 240.091V236.097C157.733 236.532 158.723 236.888 159.736 237.162C160.704 237.409 161.696 237.548 162.695 237.576C164.44 237.576 165.328 237.073 165.328 236.067C165.334 235.894 165.307 235.721 165.246 235.558C165.185 235.396 165.092 235.247 164.973 235.121C164.624 234.792 164.224 234.523 163.789 234.322L161.482 233.257C160.433 232.849 159.44 232.312 158.523 231.66C157.934 231.226 157.458 230.658 157.133 230.003C156.819 229.265 156.668 228.468 156.689 227.666C156.662 226.949 156.815 226.238 157.136 225.596C157.456 224.955 157.934 224.405 158.523 223.997C160.087 223.046 161.903 222.592 163.73 222.696C165.891 222.697 168.024 223.182 169.972 224.116L168.523 227.607C167.712 227.246 166.882 226.93 166.038 226.66C165.271 226.424 164.473 226.305 163.671 226.305C162.221 226.305 161.511 226.69 161.511 227.459C161.524 227.691 161.595 227.917 161.72 228.113C161.844 228.31 162.017 228.472 162.221 228.583C163.158 229.154 164.149 229.629 165.18 230.003C166.222 230.412 167.214 230.938 168.138 231.571C168.738 232.012 169.225 232.59 169.558 233.257C169.966 233.95 170.199 234.732 170.238 235.535Z" fill="#011826"/>
</g>
<path d="M61.8581 84.9509C84.9749 60.5207 118.531 51.9009 149 59.4651M213.571 121.352C221.993 150.018 215.911 182.139 195 206.034M114 235.839C96.3569 233.233 79.3105 225.37 65.3727 212.182C51.546 199.098 42.7836 182.671 39.1534 165.352" stroke="black" stroke-width="7"/>
<path d="M710.896 116.104C702.836 144.467 705.332 173.33 716.047 198.5M754.186 52C774.485 36.2868 799.466 26.9942 825.673 26.0483M751.173 245.618C764.015 256.239 779.219 264.43 796.277 269.277C809.949 273.163 823.738 274.595 837.173 273.836M906.173 247.99C926.371 232.351 941.932 210.353 949.45 183.896C950.812 179.105 951.872 174.299 952.643 169.5M945.13 103.5C935.984 80.9337 920.283 61.2043 899.673 47.267" stroke="black" stroke-width="7"/>
<circle cx="290" cy="145" r="7" fill="black"/>
<circle cx="621" cy="145" r="7" fill="black"/>
<path d="M456.5 23.999L456.5 266.001" stroke="black" stroke-width="3" stroke-linecap="round"/>
<g clip-path="url(#clip5_106_2)">
<path d="M985.145 148.29C984.955 146.754 984.177 145.421 982.824 144.324C982.808 144.303 982.789 144.284 982.769 144.267L982.701 144.218L982.679 144.203L981.961 143.687L981.936 143.669L981.845 143.605C981.811 143.585 981.775 143.57 981.738 143.559C979.466 142.207 975.706 141.26 969.953 143.29C968.58 140.98 968.424 139.129 969.343 136.293C969.507 135.799 969.355 135.473 968.865 135.262C967.88 134.843 966.532 135.057 965.575 135.309C965.129 135.425 964.861 135.678 964.776 136.061C964.17 138.897 962.409 141.488 960.707 143.989L960.606 144.136C959.557 141.911 959.775 140.187 960.506 138.028C960.651 137.598 960.536 137.311 960.133 137.097C959.006 136.516 957.316 136.916 956.644 137.114C955.79 137.363 954.875 139.669 953.853 142.43C953.595 143.125 953.373 143.719 953.24 143.996C952.925 144.641 952.623 145.376 952.303 146.156C951.581 147.92 950.768 149.907 949.605 151.155C949.182 150.22 949.848 148.747 950.493 147.317C951.258 145.627 951.98 144.03 951.148 143.01C951.017 142.849 950.854 142.717 950.669 142.621C950.484 142.525 950.282 142.468 950.074 142.453C949.804 142.433 949.532 142.477 949.282 142.582C949.368 141.854 949.372 141.279 949.159 140.584C948.855 139.593 948.065 139.037 946.977 139.067C944.499 139.139 942.403 140.985 941.079 142.522C940.198 143.553 938.243 144.339 936.528 145.029C935.85 145.316 935.205 145.574 934.668 145.832C933.81 145.108 932.721 144.377 931.574 143.605C928.351 141.442 924.699 138.988 924.573 135.663C924.392 130.75 929.987 127.266 934.87 124.779C938.571 122.897 941.788 121.649 944.707 120.967C948.806 120.01 952.268 120.203 954.996 121.54C956.489 122.271 957.187 123.86 956.744 125.495C955.584 129.742 950.777 132.653 946.666 133.962C944.19 134.751 942.082 135.081 940.221 134.973C937.888 134.838 935.982 133.667 935.168 133.168C935.037 133.079 934.899 133.002 934.755 132.936L934.718 132.927C934.644 132.909 934.567 132.911 934.494 132.934C934.422 132.957 934.357 132.999 934.307 133.056C934.139 133.256 934.198 133.572 934.259 133.732C935.052 135.803 936.689 137.112 939.124 137.621C939.921 137.78 940.732 137.858 941.545 137.851C947.244 137.851 954.515 134.566 957.186 131.86C959.008 130.017 960.334 128.122 960.883 124.854C961.457 121.431 959.137 119.053 956.772 117.957C951.027 115.306 944.502 116.354 940.039 117.7C934.818 119.274 929.417 122.135 925.223 125.554C920.051 129.765 918.182 133.675 919.664 137.188C921.187 140.788 924.899 143.04 928.489 145.218C929.649 145.921 930.753 146.59 931.747 147.281C931.447 147.427 931.142 147.575 930.831 147.723C927.817 149.184 924.399 150.827 922.503 153.543C921.126 155.522 920.868 157.492 921.737 159.398C922.201 160.413 923.026 161.101 924.172 161.444C924.768 161.613 925.386 161.695 926.005 161.688C928.236 161.688 930.692 160.785 932.029 159.951C934.39 158.469 935.921 156.478 936.578 154.036C937.163 151.862 937.023 149.703 936.172 147.776L939.066 146.317C937.67 150.957 938.74 153.729 939.915 155.258C940.348 155.821 941.13 156.16 942.002 156.175C942.875 156.191 943.678 155.862 944.132 155.303C944.99 154.239 945.625 152.995 946.209 151.751C946.178 152.564 946.216 153.386 946.493 154.083C946.742 154.711 947.152 155.127 947.681 155.287C948.243 155.459 948.901 155.314 949.536 154.881C952.393 152.926 954.348 148.232 955.918 144.459C956.141 143.923 956.355 143.407 956.562 142.925C956.951 144.315 957.491 145.659 958.174 146.93C958.326 147.206 958.313 147.327 958.107 147.554C957.796 147.895 957.363 148.306 956.904 148.741C955.514 150.06 953.784 151.706 953.552 153.154C953.462 153.734 953.862 154.263 954.482 154.382C956.347 154.754 958.594 154.211 960.494 152.932C962.221 151.772 962.871 150.154 962.428 148.138C961.998 146.197 962.978 143.786 965.34 140.968C965.726 142.584 966.242 143.889 966.953 145.033L966.934 145.048C965.214 146.55 962.858 148.606 963.224 151.1C963.255 151.338 963.335 151.566 963.459 151.771C963.582 151.975 963.748 152.152 963.943 152.289C964.153 152.43 964.389 152.527 964.638 152.573C964.886 152.618 965.141 152.612 965.387 152.555C967.639 152.081 969.334 151.129 970.567 149.645C971.799 148.161 971.349 146.517 970.934 145.24C974.157 144.366 977.026 144.388 979.713 145.305C981.221 145.82 982.302 146.667 982.926 147.837C983.711 149.307 983.287 150.665 981.729 151.659C981.25 151.964 981.02 152.151 981.006 152.387C981.002 152.442 981.012 152.496 981.035 152.546C981.057 152.596 981.091 152.64 981.134 152.674C981.315 152.823 981.872 153.08 983.131 152.288C984.291 151.559 984.972 150.568 985.146 149.323C985.181 148.98 985.181 148.634 985.145 148.29ZM933.617 151.521L933.604 151.686C933.403 153.573 932.444 155.218 930.749 156.584C929.684 157.443 928.528 157.97 927.494 158.07C926.772 158.14 926.247 158.042 925.935 157.778C925.702 157.581 925.577 157.285 925.549 156.875C925.337 153.591 930.488 150.327 933.388 149.253C933.594 149.99 933.672 150.757 933.617 151.521ZM946.811 142.257C946.334 144.976 944.943 150.108 942.756 152.099C942.652 152.195 942.564 152.228 942.524 152.219C942.484 152.21 942.454 152.163 942.421 152.09C941.692 150.399 941.961 147.543 943.066 145.298C943.915 143.568 945.128 142.422 946.484 142.076C946.541 142.06 946.599 142.052 946.657 142.051C946.703 142.048 946.748 142.06 946.786 142.086C946.802 142.111 946.812 142.14 946.817 142.169C946.821 142.199 946.819 142.229 946.811 142.257ZM957.573 152.168C957.162 152.597 956.598 152.539 956.731 152.382L958.825 150.159C958.656 150.924 958.157 151.557 957.573 152.168ZM966.257 150.246C966.058 150.344 965.843 150.405 965.622 150.425C965.563 149.256 966.696 147.94 967.813 147.062C968.114 148.281 967.499 149.57 966.257 150.246Z" fill="black"/>
</g>
<g clip-path="url(#clip6_106_2)">
<path d="M891.998 250.783L874.015 240.6C873.438 240.329 872.81 240.189 872.173 240.189C871.536 240.189 870.908 240.329 870.331 240.6L852.348 250.783C851.795 251.103 851.335 251.56 851.012 252.111C850.689 252.661 850.515 253.287 850.506 253.925V274.075C850.515 274.713 850.689 275.339 851.012 275.889C851.335 276.44 851.795 276.898 852.348 277.217L857.115 279.925C858.36 280.661 859.785 281.036 861.231 281.008C864.59 281.008 866.54 278.95 866.54 275.483V255.658C866.54 255.515 866.483 255.377 866.381 255.275C866.279 255.174 866.142 255.117 865.998 255.117H863.723C863.579 255.117 863.442 255.174 863.34 255.275C863.238 255.377 863.181 255.515 863.181 255.658V275.483C863.181 277.108 861.556 278.625 858.956 277.325L853.973 274.508C853.906 274.458 853.851 274.392 853.814 274.317C853.776 274.242 853.756 274.159 853.756 274.075V253.925C853.764 253.725 853.84 253.533 853.973 253.383L871.848 243.308H872.498L890.373 253.383C890.506 253.533 890.582 253.725 890.59 253.925V274.075C890.59 274.159 890.57 274.242 890.532 274.317C890.495 274.392 890.44 274.458 890.373 274.508L872.498 284.583C872.399 284.64 872.287 284.67 872.173 284.67C872.059 284.67 871.947 284.64 871.848 284.583L867.298 281.983C867.238 281.93 867.161 281.901 867.081 281.901C867.001 281.901 866.924 281.93 866.865 281.983L864.156 283.175C863.831 283.283 863.398 283.392 864.265 283.933L870.331 287.292C870.879 287.651 871.519 287.842 872.173 287.842C872.827 287.842 873.467 287.651 874.015 287.292L891.998 277.217C892.551 276.898 893.011 276.44 893.334 275.889C893.657 275.339 893.831 274.713 893.84 274.075V253.925C893.831 253.287 893.657 252.661 893.334 252.111C893.011 251.56 892.551 251.103 891.998 250.783Z" fill="black"/>
<path d="M877.698 270.825C872.931 270.825 871.956 269.742 871.523 267.467C871.523 267.352 871.477 267.241 871.396 267.16C871.315 267.079 871.205 267.033 871.09 267.033H868.706C868.591 267.033 868.481 267.079 868.4 267.16C868.319 267.241 868.273 267.352 868.273 267.467C868.273 270.392 869.898 273.967 877.698 273.967C883.331 273.967 886.581 271.8 886.581 268.008C886.581 264.217 883.981 263.133 878.456 262.483C872.931 261.833 872.39 261.4 872.39 260.1C872.39 258.8 872.823 257.717 876.94 257.717C881.056 257.717 882.031 258.475 882.573 260.858C882.598 260.982 882.666 261.094 882.765 261.173C882.864 261.252 882.988 261.294 883.115 261.292H885.39L885.823 261.075C885.862 261.031 885.892 260.979 885.911 260.924C885.929 260.868 885.936 260.809 885.931 260.75C885.606 256.525 882.681 254.575 876.94 254.575C871.198 254.575 868.815 256.742 868.815 260.208C868.815 263.675 871.848 265.083 876.723 265.625C881.598 266.167 883.115 266.925 883.115 268.117C883.115 269.308 881.49 270.825 877.698 270.825Z" fill="black"/>
</g>
<path d="M731.871 237.125C731.871 237.125 731.871 219.641 732.452 219.642C732.901 219.642 733.484 242.196 733.484 242.196C732.681 242.101 731.871 238.485 731.871 237.125ZM743.123 219.845C741.573 213.068 738.176 207.241 733.491 202.744L733.479 202.734C732.909 201.863 732.387 200.864 731.969 199.811L731.928 199.696C731.93 199.73 731.93 199.77 731.93 199.811C731.93 200.764 731.503 201.616 730.83 202.188L730.825 202.192C724.794 207.312 720.956 214.857 720.83 223.299V223.321C720.828 223.426 720.828 223.549 720.828 223.672C720.828 232.037 724.853 239.462 731.071 244.116L731.137 244.163L731.284 244.27C731.555 246.277 731.787 248.288 731.979 250.304H732.993C733.273 247.788 733.651 245.586 734.146 243.426L734.068 243.829C734.736 243.365 735.32 242.884 735.865 242.363L735.86 242.368C740.587 237.985 743.537 231.742 743.537 224.811C743.537 224.708 743.537 224.607 743.535 224.504V224.519C743.53 222.864 743.38 221.245 743.095 219.674L743.12 219.841L743.123 219.845Z" fill="black"/>
<defs>
<clipPath id="clip0_106_2">
<rect width="51" height="51" fill="white" transform="translate(703.173 54)"/>
</clipPath>
<clipPath id="clip1_106_2">
<rect width="50" height="50" fill="white" transform="translate(838.173)"/>
</clipPath>
<clipPath id="clip2_106_2">
<rect width="71" height="71" fill="white" transform="translate(154 41.8521)"/>
</clipPath>
<clipPath id="clip3_106_2">
<rect width="71" height="71" fill="white" transform="translate(5 86.8521)"/>
</clipPath>
<clipPath id="clip4_106_2">
<rect width="71" height="71" fill="white" transform="translate(119 190.852)"/>
</clipPath>
<clipPath id="clip5_106_2">
<rect width="66" height="66" fill="white" transform="translate(919.173 106)"/>
</clipPath>
<clipPath id="clip6_106_2">
<rect width="52" height="52" fill="white" transform="translate(846.173 238)"/>
</clipPath>
</defs>
</svg>
