<svg width="408" height="463" viewBox="0 0 408 463" fill="none" xmlns="http://www.w3.org/2000/svg">
<path d="M14.096 168.6C15.6533 168.6 17.0187 168.899 18.192 169.496C19.3867 170.072 20.3787 170.883 21.168 171.928C21.9573 172.973 22.544 174.179 22.928 175.544C23.3333 176.888 23.536 178.307 23.536 179.8C23.536 181.848 23.184 183.725 22.48 185.432C21.776 187.117 20.7307 188.472 19.344 189.496C17.9573 190.499 16.208 191 14.096 191H6.096C5.73333 191 5.424 190.872 5.168 190.616C4.93333 190.36 4.816 190.051 4.816 189.688V169.88C4.816 169.517 4.93333 169.219 5.168 168.984C5.424 168.728 5.73333 168.6 6.096 168.6H14.096ZM13.776 188.504C15.4187 188.504 16.752 188.109 17.776 187.32C18.8213 186.531 19.5787 185.475 20.048 184.152C20.5387 182.829 20.784 181.379 20.784 179.8C20.784 178.648 20.6453 177.549 20.368 176.504C20.112 175.437 19.696 174.499 19.12 173.688C18.5653 172.877 17.84 172.237 16.944 171.768C16.0693 171.299 15.0133 171.064 13.776 171.064H7.216L7.472 170.808V188.824L7.28 188.504H13.776ZM35.2348 191.32C33.5281 191.32 32.0348 190.957 30.7548 190.232C29.4748 189.507 28.4721 188.515 27.7468 187.256C27.0428 185.976 26.6908 184.504 26.6908 182.84C26.6908 180.984 27.0534 179.405 27.7788 178.104C28.5254 176.781 29.4854 175.779 30.6588 175.096C31.8534 174.392 33.1121 174.04 34.4348 174.04C35.4161 174.04 36.3654 174.221 37.2828 174.584C38.2001 174.947 39.0108 175.48 39.7148 176.184C40.4188 176.867 40.9841 177.699 41.4108 178.68C41.8374 179.64 42.0614 180.717 42.0828 181.912C42.0828 182.253 41.9548 182.541 41.6988 182.776C41.4428 183.011 41.1441 183.128 40.8028 183.128H28.1628L27.5868 180.92H39.9068L39.3948 181.368V180.664C39.3094 179.789 39.0108 179.043 38.4988 178.424C38.0081 177.784 37.4001 177.293 36.6748 176.952C35.9708 176.611 35.2241 176.44 34.4348 176.44C33.7948 176.44 33.1548 176.557 32.5148 176.792C31.8961 177.005 31.3308 177.368 30.8188 177.88C30.3281 178.371 29.9228 179.011 29.6028 179.8C29.3041 180.589 29.1548 181.539 29.1548 182.648C29.1548 183.885 29.4001 184.973 29.8908 185.912C30.4028 186.851 31.1068 187.597 32.0028 188.152C32.8988 188.685 33.9441 188.952 35.1388 188.952C35.8854 188.952 36.5361 188.856 37.0908 188.664C37.6454 188.472 38.1254 188.237 38.5308 187.96C38.9361 187.661 39.2774 187.363 39.5548 187.064C39.8321 186.872 40.0988 186.776 40.3548 186.776C40.6748 186.776 40.9308 186.883 41.1228 187.096C41.3361 187.309 41.4428 187.565 41.4428 187.864C41.4428 188.227 41.2721 188.547 40.9308 188.824C40.3334 189.485 39.5228 190.072 38.4988 190.584C37.4748 191.075 36.3868 191.32 35.2348 191.32ZM45.0025 188.376C44.8105 188.099 44.7252 187.811 44.7465 187.512C44.7678 187.192 44.9492 186.915 45.2905 186.68C45.5038 186.531 45.7492 186.467 46.0265 186.488C46.3252 186.509 46.5918 186.648 46.8265 186.904C47.4238 187.608 48.1065 188.173 48.8745 188.6C49.6425 189.005 50.5812 189.208 51.6905 189.208C52.2025 189.187 52.7145 189.101 53.2265 188.952C53.7385 188.803 54.1652 188.547 54.5065 188.184C54.8692 187.8 55.0505 187.299 55.0505 186.68C55.0505 186.083 54.8692 185.613 54.5065 185.272C54.1438 184.909 53.6745 184.621 53.0985 184.408C52.5225 184.173 51.8932 183.971 51.2105 183.8C50.5065 183.608 49.8132 183.395 49.1305 183.16C48.4478 182.904 47.8292 182.595 47.2745 182.232C46.7412 181.848 46.3038 181.379 45.9625 180.824C45.6425 180.248 45.4825 179.555 45.4825 178.744C45.4825 177.784 45.7385 176.952 46.2505 176.248C46.7838 175.544 47.4878 175 48.3625 174.616C49.2585 174.232 50.2292 174.04 51.2745 174.04C51.8718 174.04 52.4905 174.115 53.1305 174.264C53.7918 174.392 54.4318 174.627 55.0505 174.968C55.6692 175.288 56.2132 175.736 56.6825 176.312C56.8745 176.525 56.9812 176.792 57.0025 177.112C57.0238 177.432 56.8852 177.72 56.5865 177.976C56.3518 178.147 56.0852 178.221 55.7865 178.2C55.5092 178.179 55.2745 178.072 55.0825 177.88C54.6345 177.347 54.0692 176.941 53.3865 176.664C52.7252 176.365 51.9892 176.216 51.1785 176.216C50.6665 176.216 50.1652 176.291 49.6745 176.44C49.1838 176.589 48.7678 176.845 48.4265 177.208C48.1065 177.549 47.9465 178.029 47.9465 178.648C47.9678 179.224 48.1598 179.693 48.5225 180.056C48.8852 180.419 49.3758 180.717 49.9945 180.952C50.6132 181.165 51.2958 181.379 52.0425 181.592C52.7252 181.763 53.3758 181.965 53.9945 182.2C54.6345 182.413 55.2105 182.701 55.7225 183.064C56.2345 183.427 56.6398 183.896 56.9385 184.472C57.2372 185.027 57.3865 185.731 57.3865 186.584C57.3865 187.565 57.1092 188.419 56.5545 189.144C55.9998 189.848 55.2638 190.392 54.3465 190.776C53.4505 191.139 52.4798 191.32 51.4345 191.32C50.2612 191.32 49.0985 191.096 47.9465 190.648C46.8158 190.2 45.8345 189.443 45.0025 188.376ZM63.5508 189.688C63.5508 190.051 63.4228 190.36 63.1668 190.616C62.9321 190.872 62.6334 191 62.2708 191C61.8868 191 61.5774 190.872 61.3428 190.616C61.1081 190.36 60.9908 190.051 60.9908 189.688V175.48C60.9908 175.117 61.1081 174.819 61.3428 174.584C61.5988 174.328 61.9081 174.2 62.2708 174.2C62.6334 174.2 62.9321 174.328 63.1668 174.584C63.4228 174.819 63.5508 175.117 63.5508 175.48V189.688ZM62.2708 172.056C61.7374 172.056 61.3428 171.949 61.0868 171.736C60.8308 171.523 60.7028 171.192 60.7028 170.744V170.296C60.7028 169.848 60.8414 169.517 61.1188 169.304C61.3961 169.091 61.7908 168.984 62.3028 168.984C62.8148 168.984 63.1988 169.091 63.4548 169.304C63.7108 169.517 63.8388 169.848 63.8388 170.296V170.744C63.8388 171.192 63.7001 171.523 63.4227 171.736C63.1668 171.949 62.7828 172.056 62.2708 172.056ZM75.0933 174.04C76.0106 174.04 76.8639 174.2 77.6533 174.52C78.4426 174.819 79.1253 175.213 79.7013 175.704C80.2986 176.195 80.7573 176.707 81.0773 177.24C81.4186 177.773 81.5893 178.275 81.5893 178.744L80.9813 178.36V175.576C80.9813 175.213 81.0986 174.915 81.3333 174.68C81.5679 174.424 81.8773 174.296 82.2613 174.296C82.6239 174.296 82.9226 174.424 83.1573 174.68C83.4133 174.915 83.5413 175.213 83.5413 175.576V189.592C83.5413 191.341 83.1679 192.792 82.4213 193.944C81.6959 195.096 80.7146 195.96 79.4773 196.536C78.2399 197.112 76.8533 197.4 75.3173 197.4C74.6773 197.4 73.9733 197.315 73.2053 197.144C72.4373 196.973 71.7546 196.76 71.1573 196.504C70.5599 196.269 70.1759 196.024 70.0052 195.768C69.6853 195.555 69.4826 195.309 69.3973 195.032C69.3333 194.776 69.3866 194.531 69.5573 194.296C69.7493 193.997 69.9946 193.848 70.2933 193.848C70.6133 193.848 71.0079 193.944 71.4773 194.136C71.6693 194.2 71.9679 194.307 72.3733 194.456C72.7999 194.605 73.2693 194.733 73.7812 194.84C74.3146 194.968 74.8373 195.032 75.3493 195.032C77.1626 195.032 78.5493 194.552 79.5093 193.592C80.4906 192.653 80.9813 191.405 80.9813 189.848V186.872L81.3333 187.032C81.2053 187.629 80.9386 188.184 80.5333 188.696C80.1493 189.208 79.6693 189.667 79.0933 190.072C78.5386 190.456 77.9199 190.765 77.2373 191C76.5546 191.213 75.8613 191.32 75.1573 191.32C73.6639 191.32 72.3199 190.947 71.1253 190.2C69.9306 189.453 68.9813 188.429 68.2773 187.128C67.5946 185.827 67.2533 184.344 67.2533 182.68C67.2533 180.995 67.5946 179.501 68.2773 178.2C68.9813 176.899 69.9199 175.885 71.0933 175.16C72.2879 174.413 73.6213 174.04 75.0933 174.04ZM75.4133 176.408C74.3253 176.408 73.3439 176.685 72.4693 177.24C71.6159 177.773 70.9439 178.509 70.4533 179.448C69.9839 180.387 69.7493 181.464 69.7493 182.68C69.7493 183.853 69.9839 184.92 70.4533 185.88C70.9439 186.819 71.6159 187.565 72.4693 188.12C73.3439 188.675 74.3253 188.952 75.4133 188.952C76.5226 188.952 77.5039 188.685 78.3573 188.152C79.2106 187.597 79.8826 186.851 80.3733 185.912C80.8639 184.973 81.1093 183.896 81.1093 182.68C81.1093 181.443 80.8639 180.355 80.3733 179.416C79.8826 178.477 79.2106 177.741 78.3573 177.208C77.5039 176.675 76.5226 176.408 75.4133 176.408ZM96.4983 174.04C97.9489 174.04 99.0903 174.339 99.9223 174.936C100.754 175.533 101.341 176.333 101.682 177.336C102.045 178.339 102.226 179.459 102.226 180.696V189.688C102.226 190.051 102.098 190.36 101.842 190.616C101.608 190.872 101.309 191 100.946 191C100.584 191 100.274 190.872 100.018 190.616C99.7836 190.36 99.6663 190.051 99.6663 189.688V180.76C99.6663 179.949 99.5383 179.224 99.2823 178.584C99.0476 177.923 98.6423 177.4 98.0663 177.016C97.5116 176.611 96.7436 176.408 95.7623 176.408C94.8663 176.408 94.0449 176.611 93.2983 177.016C92.5516 177.4 91.9543 177.923 91.5063 178.584C91.0583 179.224 90.8343 179.949 90.8343 180.76V189.688C90.8343 190.051 90.7063 190.36 90.4503 190.616C90.2156 190.872 89.9169 191 89.5543 191C89.1916 191 88.8823 190.872 88.6263 190.616C88.3916 190.36 88.2743 190.051 88.2743 189.688V175.736C88.2743 175.373 88.3916 175.075 88.6263 174.84C88.8823 174.584 89.1916 174.456 89.5543 174.456C89.9383 174.456 90.2476 174.584 90.4823 174.84C90.7169 175.075 90.8343 175.373 90.8343 175.736V178.008L90.1943 178.712C90.3009 178.157 90.5463 177.603 90.9303 177.048C91.3143 176.472 91.7943 175.96 92.3703 175.512C92.9463 175.064 93.5863 174.712 94.2903 174.456C94.9943 174.179 95.7303 174.04 96.4983 174.04Z" fill="#011826"/>
<path d="M14.0966 244.6C15.6539 244.6 17.0192 244.899 18.1926 245.496C19.3872 246.072 20.3792 246.883 21.1686 247.928C21.9579 248.973 22.5446 250.179 22.9286 251.544C23.3339 252.888 23.5366 254.307 23.5366 255.8C23.5366 257.848 23.1846 259.725 22.4806 261.432C21.7766 263.117 20.7312 264.472 19.3446 265.496C17.9579 266.499 16.2086 267 14.0966 267H6.09658C5.73391 267 5.42458 266.872 5.16858 266.616C4.93391 266.36 4.81658 266.051 4.81658 265.688V245.88C4.81658 245.517 4.93391 245.219 5.16858 244.984C5.42458 244.728 5.73391 244.6 6.09658 244.6H14.0966ZM13.7766 264.504C15.4192 264.504 16.7526 264.109 17.7766 263.32C18.8219 262.531 19.5792 261.475 20.0486 260.152C20.5392 258.829 20.7846 257.379 20.7846 255.8C20.7846 254.648 20.6459 253.549 20.3686 252.504C20.1126 251.437 19.6966 250.499 19.1206 249.688C18.5659 248.877 17.8406 248.237 16.9446 247.768C16.0699 247.299 15.0139 247.064 13.7766 247.064H7.21658L7.47258 246.808V264.824L7.28058 264.504H13.7766ZM35.2353 267.32C33.5287 267.32 32.0353 266.957 30.7553 266.232C29.4753 265.507 28.4727 264.515 27.7473 263.256C27.0433 261.976 26.6913 260.504 26.6913 258.84C26.6913 256.984 27.054 255.405 27.7793 254.104C28.526 252.781 29.486 251.779 30.6593 251.096C31.854 250.392 33.1127 250.04 34.4353 250.04C35.4167 250.04 36.366 250.221 37.2833 250.584C38.2007 250.947 39.0113 251.48 39.7153 252.184C40.4193 252.867 40.9847 253.699 41.4113 254.68C41.838 255.64 42.062 256.717 42.0833 257.912C42.0833 258.253 41.9553 258.541 41.6993 258.776C41.4433 259.011 41.1447 259.128 40.8033 259.128H28.1633L27.5873 256.92H39.9073L39.3953 257.368V256.664C39.31 255.789 39.0113 255.043 38.4993 254.424C38.0087 253.784 37.4007 253.293 36.6753 252.952C35.9713 252.611 35.2247 252.44 34.4353 252.44C33.7953 252.44 33.1553 252.557 32.5153 252.792C31.8967 253.005 31.3313 253.368 30.8193 253.88C30.3287 254.371 29.9233 255.011 29.6033 255.8C29.3047 256.589 29.1553 257.539 29.1553 258.648C29.1553 259.885 29.4007 260.973 29.8913 261.912C30.4033 262.851 31.1073 263.597 32.0033 264.152C32.8993 264.685 33.9447 264.952 35.1393 264.952C35.886 264.952 36.5367 264.856 37.0913 264.664C37.646 264.472 38.126 264.237 38.5313 263.96C38.9367 263.661 39.278 263.363 39.5553 263.064C39.8327 262.872 40.0993 262.776 40.3553 262.776C40.6753 262.776 40.9313 262.883 41.1233 263.096C41.3367 263.309 41.4433 263.565 41.4433 263.864C41.4433 264.227 41.2727 264.547 40.9313 264.824C40.334 265.485 39.5233 266.072 38.4993 266.584C37.4753 267.075 36.3873 267.32 35.2353 267.32ZM45.7748 250.168C46.0308 250.168 46.2762 250.243 46.5108 250.392C46.7455 250.52 46.9162 250.712 47.0228 250.968L52.3348 263.448L51.8228 263.704L57.2308 251C57.4655 250.424 57.8602 250.147 58.4148 250.168C58.7348 250.168 59.0122 250.275 59.2468 250.488C59.4815 250.701 59.5988 250.968 59.5988 251.288C59.5988 251.416 59.5775 251.544 59.5348 251.672C59.5135 251.779 59.4815 251.875 59.4388 251.96L53.2628 266.168C53.0282 266.701 52.6548 266.979 52.1428 267C51.8655 267.021 51.5988 266.968 51.3428 266.84C51.1082 266.691 50.9375 266.467 50.8308 266.168L44.6548 251.992C44.6122 251.907 44.5695 251.811 44.5268 251.704C44.5055 251.597 44.4948 251.469 44.4948 251.32C44.4948 251.043 44.6015 250.787 44.8148 250.552C45.0495 250.296 45.3695 250.168 45.7748 250.168Z" fill="#011826"/>
<g clip-path="url(#clip0_181_112)">
<path d="M81.6347 334.722V369.145H116.058V334.722H81.6347ZM99.6007 364.169C99.0936 365.2 98.1246 365.877 97.0027 366.204C95.278 366.6 93.6293 366.375 92.4018 365.638C91.5801 365.134 90.9389 364.358 90.5044 363.465C91.3778 362.932 92.2489 362.395 93.1222 361.862C93.1453 361.872 93.2135 361.996 93.3059 362.156C93.6392 362.716 93.9274 363.112 94.4938 363.389C95.0504 363.579 96.2702 363.701 96.742 362.722C97.0302 362.225 96.9378 360.592 96.9378 358.823C96.9378 356.041 96.951 353.305 96.951 350.49H100.17C100.17 353.446 100.187 356.41 100.17 359.363C100.177 361.172 100.334 362.817 99.6007 364.169ZM112.958 363.26C111.839 367.088 105.599 367.213 103.106 364.683C102.579 364.088 102.249 363.777 101.935 363.089C103.26 362.327 103.26 362.327 104.549 361.581C105.25 362.658 105.898 363.25 107.062 363.492C108.643 363.684 110.234 363.142 109.877 361.463C109.511 360.092 106.641 359.759 104.688 358.292C102.705 356.96 102.24 353.724 103.869 351.876C104.413 351.191 105.339 350.681 106.31 350.436C106.647 350.393 106.988 350.348 107.324 350.305C109.271 350.265 110.489 350.779 111.382 351.778C111.63 352.03 111.833 352.301 112.213 352.891C111.176 353.552 111.179 353.545 109.693 354.508C109.376 353.823 108.85 353.395 108.293 353.209C107.43 352.947 106.34 353.232 106.114 354.145C106.036 354.426 106.053 354.688 106.177 355.152C106.527 355.951 107.702 356.297 108.755 356.781C111.789 358.012 112.813 359.33 113.065 360.9C113.307 362.252 113.005 363.129 112.96 363.26H112.958Z" fill="#011826"/>
</g>
<path d="M100.5 72H90.75C85.3652 72 81 76.3279 81 81.6667C81 87.0054 85.3652 91.3333 90.75 91.3333M100.5 72V91.3333M100.5 72H110.25C115.635 72 120 76.3279 120 81.6667C120 87.0054 115.635 91.3333 110.25 91.3333M90.75 91.3333H100.5M90.75 91.3333C85.3652 91.3333 81 95.6611 81 101C81 106.339 85.3652 110.667 90.75 110.667M100.5 91.3333H110.25M100.5 91.3333V110.667M110.25 91.3333C115.635 91.3333 120 95.6611 120 101C120 106.339 115.635 110.667 110.25 110.667C104.865 110.667 100.5 106.339 100.5 101C100.5 95.6611 104.865 91.3333 110.25 91.3333ZM100.5 110.667H90.75M100.5 110.667V120.333C100.5 125.672 96.1349 130 90.75 130C85.3652 130 81 125.672 81 120.333C81 114.994 85.3652 110.667 90.75 110.667" stroke="#011826" stroke-width="4" stroke-linecap="round" stroke-linejoin="round"/>
<g clip-path="url(#clip1_181_112)">
<path d="M370.761 25.8562V59.6978H336.92V25.8562H370.761ZM370.761 21.0217H336.92C335.637 21.0217 334.408 21.5311 333.501 22.4377C332.594 23.3444 332.085 24.574 332.085 25.8562V59.6978C332.085 60.9799 332.594 62.2096 333.501 63.1163C334.408 64.0229 335.637 64.5323 336.92 64.5323H370.761C372.043 64.5323 373.273 64.0229 374.18 63.1163C375.086 62.2096 375.596 60.9799 375.596 59.6978V25.8562C375.596 24.574 375.086 23.3444 374.18 22.4377C373.273 21.5311 372.043 21.0217 370.761 21.0217Z" fill="#011826"/>
<path d="M354.565 52.881L353.188 48.3607H346.25L344.872 52.881H340.545L347.241 33.8088H352.076L358.796 52.881H354.565ZM352.148 44.9765C350.867 40.8914 350.166 38.5708 349.997 38.039C349.828 37.5072 349.731 37.0721 349.658 36.7579C349.368 37.8698 348.547 40.6255 347.241 44.9765H352.148Z" fill="#011826"/>
<path d="M360.802 34.6067C360.802 33.3255 361.527 32.6729 362.953 32.6729C364.38 32.6729 365.105 33.3255 365.105 34.6067C365.123 34.8686 365.085 35.1314 364.993 35.3774C364.902 35.6234 364.758 35.8469 364.573 36.0328C364.353 36.2259 364.096 36.3726 363.817 36.464C363.539 36.5553 363.245 36.5896 362.953 36.5646C361.527 36.5646 360.802 35.912 360.802 34.6067ZM364.935 52.8811H361.092V38.3776H365.056L364.935 52.8811Z" fill="#011826"/>
</g>
<g clip-path="url(#clip2_181_112)">
<path d="M249.013 62.6258V96.4673H215.172V62.6258H249.013ZM249.013 57.7913H215.172C213.89 57.7913 212.66 58.3006 211.753 59.2073C210.847 60.1139 210.337 61.3436 210.337 62.6258V96.4673C210.337 97.7495 210.847 98.9792 211.753 99.8858C212.66 100.792 213.89 101.302 215.172 101.302H249.013C250.295 101.302 251.525 100.792 252.432 99.8858C253.338 98.9792 253.848 97.7495 253.848 96.4673V62.6258C253.848 61.3436 253.338 60.1139 252.432 59.2073C251.525 58.3006 250.295 57.7913 249.013 57.7913Z" fill="#011826"/>
<path d="M222.037 89.5057V70.5303H226.049V89.5057H222.037Z" fill="#011826"/>
<path d="M234.051 89.7715C233.269 89.8017 232.493 89.6362 231.792 89.29C231.092 88.9438 230.489 88.428 230.038 87.7893C228.984 86.1518 228.476 84.2223 228.588 82.278C228.469 80.3145 228.986 78.3652 230.062 76.7183C230.531 76.0752 231.151 75.5578 231.868 75.212C232.585 74.8662 233.376 74.7028 234.171 74.7362C234.992 74.7066 235.806 74.8863 236.538 75.2585C237.269 75.6306 237.894 76.1829 238.353 76.8634H238.474C238.293 75.9067 238.196 74.9361 238.184 73.9627V69.3215H242.148V89.5056H239.103L238.353 87.6443H238.184C237.75 88.3381 237.137 88.902 236.41 89.2764C235.682 89.6508 234.867 89.8219 234.051 89.7715ZM235.453 86.6291C235.867 86.6645 236.285 86.602 236.671 86.4467C237.057 86.2913 237.402 86.0475 237.676 85.7347C238.229 84.8355 238.498 83.7913 238.45 82.7373V82.3022C238.544 81.143 238.291 79.982 237.725 78.9664C237.442 78.6045 237.072 78.3212 236.649 78.1434C236.225 77.9656 235.764 77.8994 235.307 77.9511C234.899 77.9477 234.496 78.0479 234.137 78.2424C233.778 78.4368 233.473 78.7192 233.253 79.0631C232.709 80.061 232.458 81.192 232.528 82.3263C232.448 83.446 232.7 84.5643 233.253 85.5413C233.489 85.9024 233.818 86.1938 234.204 86.3851C234.591 86.5763 235.022 86.6606 235.453 86.6291Z" fill="#011826"/>
</g>
<g clip-path="url(#clip3_181_112)">
<path d="M342.163 147.604V181.446H308.321V147.604H342.163ZM342.163 142.77H308.321C307.039 142.77 305.809 143.279 304.903 144.186C303.996 145.092 303.487 146.322 303.487 147.604V181.446C303.487 182.728 303.996 183.957 304.903 184.864C305.809 185.771 307.039 186.28 308.321 186.28H342.163C343.445 186.28 344.674 185.771 345.581 184.864C346.488 183.957 346.997 182.728 346.997 181.446V147.604C346.997 146.322 346.488 145.092 345.581 144.186C344.674 143.279 343.445 142.77 342.163 142.77Z" fill="#011826"/>
<path d="M325.508 160.826C325.56 161.703 325.413 162.581 325.078 163.393C324.743 164.205 324.229 164.931 323.574 165.516C322.015 166.692 320.084 167.267 318.135 167.135H316.419V173.88H312.382V154.856H318.449C320.319 154.727 322.175 155.258 323.695 156.354C324.325 156.907 324.818 157.599 325.132 158.375C325.447 159.152 325.576 159.991 325.508 160.826ZM316.419 163.848H317.724C318.676 163.895 319.618 163.632 320.407 163.099C320.726 162.849 320.978 162.524 321.138 162.152C321.299 161.781 321.363 161.375 321.326 160.971C321.361 160.585 321.31 160.196 321.176 159.833C321.043 159.469 320.829 159.14 320.552 158.868C319.852 158.364 318.996 158.124 318.135 158.192H316.419V163.848Z" fill="#011826"/>
<path d="M338.102 169.577C338.136 170.227 338.014 170.877 337.744 171.47C337.475 172.063 337.067 172.583 336.555 172.985C335.169 173.853 333.544 174.259 331.914 174.145C331.006 174.158 330.1 174.085 329.206 173.928C328.484 173.799 327.778 173.588 327.103 173.299V170.036C327.884 170.391 328.692 170.683 329.52 170.906C330.311 171.108 331.122 171.221 331.938 171.245C333.364 171.245 334.089 170.834 334.089 170.012C334.095 169.87 334.072 169.729 334.022 169.596C333.972 169.463 333.896 169.341 333.799 169.238C333.514 168.97 333.188 168.75 332.832 168.586L330.947 167.716C330.09 167.382 329.278 166.943 328.529 166.41C328.048 166.056 327.659 165.592 327.393 165.057C327.137 164.453 327.013 163.802 327.031 163.147C327.008 162.562 327.134 161.98 327.396 161.456C327.658 160.932 328.048 160.483 328.529 160.15C329.807 159.372 331.291 159.001 332.784 159.086C334.549 159.087 336.292 159.483 337.884 160.246L336.7 163.099C336.037 162.804 335.36 162.546 334.669 162.325C334.043 162.133 333.391 162.035 332.735 162.035C331.551 162.035 330.971 162.349 330.971 162.978C330.981 163.168 331.039 163.352 331.141 163.513C331.243 163.673 331.384 163.806 331.551 163.896C332.316 164.363 333.126 164.751 333.968 165.057C334.82 165.391 335.631 165.821 336.385 166.338C336.876 166.699 337.274 167.171 337.546 167.716C337.879 168.282 338.07 168.921 338.102 169.577Z" fill="#011826"/>
</g>
<path d="M249.544 46.5345C268.433 26.5726 295.852 19.5294 320.748 25.7101M373.508 76.2778C380.391 99.7004 375.421 125.947 358.334 145.471M292.149 169.825C277.733 167.696 263.805 161.271 252.416 150.495C241.118 139.804 233.958 126.382 230.992 112.23" stroke="#011826" stroke-width="7"/>
<ellipse cx="164.5" cy="96" rx="5.5" ry="5" fill="#011826"/>
<circle cx="159" cy="352.704" r="5" fill="#011826"/>
<g clip-path="url(#clip4_181_112)">
<path d="M222.864 294.76C222.309 295.08 221.724 295.965 221.656 297.894C221.624 298.811 220.855 299.528 219.939 299.496C219.022 299.463 218.305 298.694 218.337 297.778C218.421 295.412 219.169 293.059 221.204 291.884C223.245 290.705 225.665 291.24 227.76 292.358C228.57 292.79 228.876 293.796 228.444 294.605C228.012 295.414 227.006 295.72 226.197 295.288C224.485 294.375 223.422 294.438 222.864 294.76ZM231.768 297.64C232.474 297.055 233.521 297.153 234.106 297.859C235.333 299.341 236.511 301.03 237.579 302.881C239.883 306.87 241.303 310.957 241.686 314.385C241.877 316.096 241.818 317.725 241.419 319.121C241.016 320.528 240.231 321.802 238.916 322.561C237.324 323.481 235.486 323.35 233.804 322.738C232.116 322.123 230.379 320.959 228.723 319.447C228.045 318.829 227.997 317.779 228.616 317.102C229.234 316.424 230.284 316.376 230.961 316.995C232.421 318.327 233.792 319.199 234.94 319.617C236.095 320.037 236.821 319.936 237.255 319.685C237.619 319.475 237.986 319.047 238.226 318.207C238.469 317.357 238.546 316.193 238.385 314.753C238.064 311.879 236.833 308.23 234.704 304.542C233.724 302.845 232.652 301.31 231.549 299.978C230.964 299.272 231.062 298.225 231.768 297.64Z" fill="#011826"/>
<path d="M244.23 307.675C244.23 307.034 243.756 306.085 242.119 305.061C241.341 304.575 241.105 303.551 241.591 302.773C242.077 301.996 243.102 301.759 243.879 302.245C245.886 303.5 247.551 305.325 247.551 307.675C247.551 310.032 245.877 311.86 243.861 313.116C243.083 313.601 242.059 313.363 241.574 312.584C241.089 311.806 241.327 310.782 242.105 310.297C243.753 309.271 244.23 308.318 244.23 307.675ZM237.283 313.946C237.437 314.85 236.829 315.707 235.925 315.861C234.028 316.183 231.976 316.358 229.839 316.358C225.233 316.358 220.983 315.545 217.823 314.162C216.246 313.472 214.865 312.607 213.855 311.563C212.837 310.51 212.127 309.194 212.127 307.675C212.127 305.837 213.159 304.311 214.53 303.16C215.906 302.006 217.783 301.083 219.92 300.404C220.794 300.127 221.728 300.611 222.005 301.485C222.283 302.359 221.799 303.292 220.925 303.57C219.042 304.168 217.601 304.919 216.664 305.704C215.723 306.494 215.448 307.173 215.448 307.675C215.448 308.095 215.635 308.626 216.242 309.254C216.857 309.89 217.827 310.539 219.154 311.119C221.804 312.278 225.58 313.037 229.839 313.037C231.798 313.037 233.663 312.876 235.368 312.587C236.273 312.433 237.13 313.042 237.283 313.946Z" fill="#011826"/>
<path d="M222.913 319.685C223.469 320.006 224.527 320.07 226.232 319.164C227.042 318.734 228.047 319.042 228.478 319.851C228.908 320.661 228.6 321.666 227.79 322.097C225.7 323.207 223.288 323.736 221.253 322.561C219.212 321.383 218.465 319.02 218.385 316.646C218.355 315.729 219.073 314.962 219.989 314.931C220.906 314.9 221.674 315.618 221.705 316.535C221.77 318.475 222.356 319.364 222.913 319.685ZM220.956 310.535C220.096 310.215 219.658 309.26 219.977 308.4C220.646 306.596 221.52 304.732 222.589 302.881C224.892 298.892 227.721 295.618 230.499 293.573C231.885 292.552 233.324 291.788 234.734 291.436C236.154 291.081 237.649 291.124 238.965 291.883C240.556 292.802 241.362 294.459 241.673 296.222C241.985 297.991 241.846 300.078 241.364 302.268C241.167 303.164 240.282 303.73 239.386 303.534C238.491 303.337 237.924 302.451 238.121 301.556C238.545 299.626 238.614 298.002 238.402 296.798C238.189 295.588 237.738 295.01 237.304 294.759C236.94 294.549 236.386 294.446 235.539 294.658C234.681 294.872 233.634 295.388 232.468 296.247C230.139 297.962 227.594 300.853 225.465 304.541C224.486 306.238 223.692 307.934 223.09 309.555C222.771 310.415 221.815 310.854 220.956 310.535Z" fill="#011826"/>
<path d="M233.069 307.367C233.069 309.029 231.722 310.376 230.06 310.376C228.398 310.376 227.05 309.029 227.05 307.367C227.05 305.704 228.398 304.357 230.06 304.357C231.722 304.357 233.069 305.704 233.069 307.367Z" fill="#011826"/>
</g>
<g clip-path="url(#clip5_181_112)">
<path d="M329.96 275.968C331.241 275.834 332.214 274.719 332.169 273.381C332.125 272.042 331.02 270.971 329.694 270.971H329.606C328.236 271.016 327.175 272.176 327.22 273.559C327.264 274.228 327.529 274.808 327.927 275.21C326.424 278.199 324.126 280.385 320.679 282.214C318.336 283.463 315.906 283.909 313.475 283.597C311.486 283.329 309.94 282.437 308.967 280.965C307.553 278.779 307.42 276.414 308.614 274.05C309.453 272.354 310.779 271.105 311.619 270.481C311.442 269.901 311.177 268.919 311.044 268.205C304.636 272.89 305.299 279.225 307.244 282.214C308.702 284.445 311.663 285.828 314.933 285.828C315.817 285.828 316.701 285.739 317.585 285.516C323.242 284.4 327.529 281.01 329.96 275.968ZM337.738 270.436C334.379 266.465 329.429 264.279 323.772 264.279H323.065C322.668 263.476 321.828 262.941 320.9 262.941H320.811C319.441 262.985 318.381 264.145 318.425 265.528C318.469 266.867 319.574 267.938 320.9 267.938H320.988C321.96 267.893 322.8 267.268 323.154 266.421H323.949C327.308 266.421 330.49 267.402 333.363 269.321C335.572 270.793 337.163 272.711 338.047 275.031C338.799 276.905 338.754 278.734 337.959 280.296C336.721 282.66 334.644 283.954 331.904 283.954C330.136 283.954 328.457 283.419 327.573 283.017C327.087 283.463 326.203 284.177 325.584 284.623C327.485 285.516 329.429 286.006 331.285 286.006C335.528 286.006 338.666 283.642 339.859 281.277C341.141 278.69 341.052 274.228 337.738 270.436ZM315.287 276.727C315.331 278.065 316.436 279.136 317.762 279.136H317.85C319.22 279.091 320.281 277.931 320.237 276.548C320.193 275.21 319.088 274.139 317.762 274.139H317.674C317.585 274.139 317.453 274.139 317.364 274.184C315.552 271.15 314.801 267.848 315.066 264.279C315.243 261.602 316.127 259.282 317.674 257.364C318.955 255.713 321.43 254.91 323.109 254.866C327.794 254.776 329.783 260.665 329.915 263.03C330.49 263.164 331.462 263.476 332.125 263.699C331.595 256.472 327.175 252.724 322.933 252.724C318.955 252.724 315.287 255.624 313.829 259.907C311.796 265.618 313.122 271.105 315.596 275.433C315.375 275.745 315.243 276.236 315.287 276.727Z" fill="#011826"/>
</g>
<path d="M217.491 332.645C211.893 352.345 213.627 372.393 221.069 389.876M247.56 288.119C261.659 277.205 279.01 270.75 297.214 270.093M245.467 422.603C254.387 429.98 264.947 435.67 276.796 439.037C286.292 441.735 295.869 442.73 305.201 442.203M353.128 424.251C367.157 413.388 377.965 398.109 383.188 379.732C384.133 376.404 384.87 373.066 385.405 369.733M380.187 323.89C373.834 308.216 362.928 294.512 348.613 284.831" stroke="#011826" stroke-width="7"/>
<g clip-path="url(#clip6_181_112)">
<path d="M407.98 355.001C407.849 353.934 407.308 353.008 406.369 352.246C406.357 352.232 406.344 352.219 406.33 352.207L406.283 352.173L406.267 352.162L405.769 351.804L405.752 351.791L405.688 351.746C405.665 351.733 405.64 351.722 405.614 351.715C404.036 350.776 401.424 350.118 397.428 351.528C396.475 349.923 396.367 348.638 397.005 346.668C397.119 346.325 397.013 346.098 396.673 345.952C395.989 345.661 395.052 345.809 394.388 345.985C394.078 346.065 393.892 346.241 393.833 346.507C393.412 348.476 392.189 350.276 391.006 352.013L390.936 352.115C390.207 350.57 390.359 349.373 390.866 347.873C390.968 347.574 390.888 347.375 390.608 347.227C389.825 346.823 388.651 347.1 388.184 347.238C387.591 347.411 386.955 349.013 386.245 350.931C386.066 351.413 385.912 351.826 385.82 352.019C385.601 352.466 385.391 352.977 385.169 353.518C384.668 354.744 384.103 356.124 383.295 356.99C383.001 356.341 383.463 355.318 383.912 354.325C384.443 353.151 384.944 352.042 384.367 351.334C384.276 351.222 384.162 351.129 384.034 351.063C383.906 350.996 383.765 350.957 383.621 350.947C383.433 350.932 383.244 350.963 383.07 351.036C383.13 350.53 383.133 350.131 382.985 349.648C382.774 348.96 382.225 348.574 381.469 348.595C379.749 348.645 378.293 349.927 377.373 350.994C376.761 351.711 375.403 352.257 374.212 352.736C373.741 352.935 373.293 353.114 372.92 353.294C372.324 352.79 371.568 352.283 370.771 351.746C368.532 350.244 365.996 348.54 365.908 346.23C365.783 342.818 369.669 340.398 373.06 338.67C375.631 337.363 377.866 336.496 379.893 336.023C382.74 335.358 385.145 335.492 387.04 336.42C388.076 336.928 388.562 338.032 388.254 339.167C387.448 342.118 384.109 344.139 381.254 345.049C379.534 345.597 378.07 345.826 376.777 345.751C375.156 345.657 373.833 344.844 373.267 344.497C373.176 344.436 373.081 344.382 372.981 344.336L372.955 344.33C372.903 344.317 372.85 344.319 372.799 344.335C372.749 344.35 372.704 344.38 372.669 344.42C372.553 344.558 372.594 344.778 372.636 344.889C373.186 346.328 374.324 347.236 376.015 347.59C376.568 347.701 377.132 347.755 377.696 347.75C381.655 347.75 386.706 345.468 388.561 343.589C389.826 342.308 390.747 340.992 391.129 338.722C391.527 336.345 389.915 334.693 388.273 333.932C384.283 332.09 379.75 332.818 376.651 333.753C373.024 334.846 369.273 336.834 366.359 339.209C362.767 342.134 361.469 344.849 362.498 347.289C363.556 349.79 366.135 351.354 368.628 352.867C369.434 353.355 370.2 353.82 370.891 354.3C370.683 354.401 370.471 354.504 370.255 354.607C368.162 355.621 365.787 356.763 364.47 358.65C363.514 360.024 363.335 361.392 363.938 362.716C364.261 363.421 364.834 363.899 365.63 364.137C366.044 364.255 366.472 364.312 366.903 364.306C368.453 364.306 370.158 363.68 371.087 363.1C372.727 362.071 373.79 360.688 374.247 358.992C374.653 357.482 374.555 355.982 373.965 354.644L375.975 353.63C375.005 356.853 375.748 358.779 376.565 359.84C376.866 360.232 377.408 360.467 378.014 360.478C378.62 360.489 379.178 360.26 379.493 359.872C380.09 359.133 380.53 358.269 380.936 357.405C380.914 357.969 380.941 358.54 381.134 359.025C381.307 359.461 381.591 359.75 381.958 359.861C382.349 359.98 382.806 359.88 383.247 359.579C385.232 358.221 386.589 354.961 387.68 352.34C387.835 351.967 387.983 351.609 388.127 351.274C388.397 352.24 388.773 353.173 389.247 354.056C389.352 354.248 389.343 354.332 389.2 354.49C388.984 354.726 388.683 355.012 388.365 355.314C387.399 356.23 386.198 357.374 386.037 358.379C385.974 358.782 386.252 359.149 386.682 359.232C387.978 359.49 389.538 359.113 390.858 358.225C392.058 357.419 392.509 356.296 392.201 354.895C391.903 353.547 392.584 351.873 394.224 349.915C394.493 351.037 394.851 351.944 395.345 352.738L395.332 352.749C394.137 353.792 392.5 355.22 392.755 356.953C392.776 357.118 392.831 357.276 392.917 357.418C393.003 357.56 393.118 357.683 393.254 357.778C393.4 357.877 393.564 357.944 393.736 357.975C393.909 358.007 394.086 358.003 394.257 357.963C395.821 357.634 396.999 356.973 397.855 355.942C398.711 354.911 398.398 353.769 398.11 352.883C400.348 352.275 402.341 352.291 404.207 352.927C405.255 353.285 406.006 353.874 406.439 354.686C406.985 355.707 406.69 356.65 405.608 357.341C405.275 357.553 405.115 357.683 405.105 357.846C405.103 357.884 405.11 357.922 405.126 357.957C405.141 357.992 405.165 358.022 405.195 358.046C405.32 358.149 405.707 358.328 406.582 357.777C407.388 357.272 407.86 356.583 407.981 355.718C408.006 355.48 408.005 355.239 407.98 355.001ZM372.19 357.245L372.181 357.359C372.041 358.67 371.375 359.813 370.198 360.762C369.458 361.358 368.655 361.724 367.937 361.794C367.436 361.842 367.071 361.774 366.854 361.591C366.692 361.454 366.606 361.249 366.586 360.964C366.439 358.683 370.017 356.416 372.031 355.67C372.174 356.182 372.228 356.715 372.19 357.245ZM381.354 350.811C381.023 352.699 380.057 356.263 378.538 357.647C378.466 357.713 378.405 357.736 378.377 357.73C378.349 357.724 378.328 357.691 378.305 357.641C377.798 356.466 377.986 354.482 378.753 352.923C379.343 351.721 380.186 350.925 381.127 350.684C381.167 350.674 381.207 350.668 381.247 350.667C381.279 350.665 381.311 350.674 381.337 350.692C381.348 350.709 381.355 350.729 381.358 350.749C381.361 350.77 381.36 350.791 381.354 350.811ZM388.829 357.694C388.544 357.992 388.152 357.952 388.245 357.843L389.699 356.299C389.581 356.83 389.235 357.27 388.829 357.694ZM394.861 356.359C394.723 356.427 394.574 356.47 394.42 356.484C394.379 355.672 395.166 354.757 395.942 354.148C396.151 354.995 395.724 355.89 394.861 356.359Z" fill="#011826"/>
</g>
<g clip-path="url(#clip7_181_112)">
<path d="M343.282 426.191L330.791 419.118C330.391 418.93 329.954 418.833 329.512 418.833C329.07 418.833 328.633 418.93 328.233 419.118L315.742 426.191C315.358 426.413 315.038 426.73 314.813 427.113C314.589 427.496 314.468 427.93 314.462 428.373V442.369C314.468 442.813 314.589 443.247 314.813 443.629C315.038 444.012 315.358 444.33 315.742 444.551L319.052 446.432C319.917 446.944 320.907 447.204 321.912 447.185C324.245 447.185 325.599 445.755 325.599 443.347V429.577C325.599 429.477 325.559 429.382 325.489 429.311C325.418 429.241 325.323 429.201 325.223 429.201H323.643C323.543 429.201 323.447 429.241 323.377 429.311C323.306 429.382 323.266 429.477 323.266 429.577V443.347C323.266 444.476 322.138 445.53 320.332 444.627L316.87 442.67C316.824 442.635 316.786 442.59 316.76 442.537C316.733 442.485 316.72 442.428 316.72 442.369V428.373C316.725 428.234 316.778 428.101 316.87 427.997L329.286 420.999H329.738L342.153 427.997C342.245 428.101 342.299 428.234 342.304 428.373V442.369C342.304 442.428 342.29 442.485 342.264 442.537C342.238 442.59 342.2 442.635 342.153 442.67L329.738 449.668C329.669 449.708 329.591 449.729 329.512 449.729C329.433 449.729 329.355 449.708 329.286 449.668L326.126 447.862C326.084 447.825 326.031 447.805 325.975 447.805C325.92 447.805 325.866 447.825 325.825 447.862L323.944 448.69C323.718 448.765 323.417 448.84 324.019 449.217L328.233 451.549C328.613 451.799 329.057 451.931 329.512 451.931C329.966 451.931 330.411 451.799 330.791 451.549L343.282 444.551C343.666 444.33 343.986 444.012 344.21 443.629C344.434 443.247 344.555 442.813 344.561 442.369V428.373C344.555 427.93 344.434 427.496 344.21 427.113C343.986 426.73 343.666 426.413 343.282 426.191Z" fill="#011826"/>
<path d="M333.349 440.112C330.039 440.112 329.361 439.359 329.06 437.779C329.06 437.699 329.029 437.623 328.972 437.566C328.916 437.51 328.839 437.478 328.759 437.478H327.104C327.024 437.478 326.948 437.51 326.891 437.566C326.835 437.623 326.803 437.699 326.803 437.779C326.803 439.811 327.932 442.294 333.349 442.294C337.262 442.294 339.52 440.789 339.52 438.155C339.52 435.522 337.714 434.769 333.876 434.318C330.039 433.866 329.662 433.565 329.662 432.662C329.662 431.759 329.963 431.007 332.823 431.007C335.682 431.007 336.359 431.534 336.735 433.189C336.753 433.275 336.8 433.353 336.869 433.408C336.938 433.463 337.024 433.492 337.112 433.49H338.692L338.993 433.34C339.02 433.309 339.041 433.273 339.054 433.234C339.067 433.196 339.072 433.155 339.068 433.114C338.842 430.179 336.811 428.825 332.823 428.825C328.835 428.825 327.179 430.33 327.179 432.738C327.179 435.145 329.286 436.124 332.672 436.5C336.058 436.876 337.112 437.403 337.112 438.231C337.112 439.058 335.983 440.112 333.349 440.112Z" fill="#011826"/>
</g>
<path d="M232.06 416.704C232.06 416.704 232.06 404.56 232.463 404.561C232.775 404.561 233.18 420.226 233.18 420.226C232.623 420.161 232.06 417.649 232.06 416.704ZM239.876 404.702C238.798 399.994 236.439 395.947 233.185 392.823L233.177 392.816C232.781 392.212 232.419 391.518 232.128 390.786L232.1 390.707C232.101 390.73 232.101 390.758 232.101 390.786C232.101 391.448 231.804 392.04 231.337 392.438L231.333 392.44C227.144 395.996 224.479 401.237 224.391 407.101V407.116C224.39 407.189 224.39 407.274 224.39 407.36C224.39 413.17 227.185 418.327 231.504 421.56L231.55 421.593L231.652 421.667C231.84 423.061 232.001 424.458 232.135 425.858H232.839C233.034 424.111 233.297 422.581 233.64 421.081L233.586 421.361C234.05 421.039 234.456 420.704 234.834 420.342L234.831 420.346C238.114 417.302 240.163 412.965 240.163 408.151C240.163 408.08 240.163 408.009 240.162 407.938V407.948C240.158 406.798 240.054 405.674 239.856 404.583L239.873 404.699L239.876 404.702Z" fill="#011826"/>
<path d="M385 218L1.99998 218" stroke="#011826" stroke-width="3" stroke-linecap="round"/>
<defs>
<clipPath id="clip0_181_112">
<rect width="35.1972" height="35.1972" fill="white" transform="translate(81.2124 333.985)"/>
</clipPath>
<clipPath id="clip1_181_112">
<rect width="58.014" height="58.014" fill="white" transform="translate(324.833 11.3186)"/>
</clipPath>
<clipPath id="clip2_181_112">
<rect width="58.014" height="58.014" fill="white" transform="translate(203.085 48.0881)"/>
</clipPath>
<clipPath id="clip3_181_112">
<rect width="58.014" height="58.014" fill="white" transform="translate(296.235 133.066)"/>
</clipPath>
<clipPath id="clip4_181_112">
<rect width="35.4239" height="35.4239" fill="white" transform="translate(212.127 289.508)"/>
</clipPath>
<clipPath id="clip5_181_112">
<rect width="34.7293" height="34.7293" fill="white" transform="translate(305.896 252)"/>
</clipPath>
<clipPath id="clip6_181_112">
<rect width="45.8427" height="45.8427" fill="white" transform="translate(362.157 325.627)"/>
</clipPath>
<clipPath id="clip7_181_112">
<rect width="36.1185" height="36.1185" fill="white" transform="translate(311.453 417.312)"/>
</clipPath>
</defs>
</svg>
